<svg preserveAspectRatio="xMidYMid meet" width="100%" height="100%" overflow="visible" style="display: block;" viewBox="0 0 219.962 61.7143" fill="none" xmlns="http://www.w3.org/2000/svg">
<g id="App BiT">
<path id="Vector" d="M189.105 0H194.248V5.14285H189.105V0ZM194.248 0H199.391V5.14285H194.248V0ZM199.391 0H204.534V5.14285H199.391V0ZM204.534 0H209.676V5.14285H204.534V0ZM209.676 0H214.819V5.14285H209.676V0ZM214.819 0H219.962V5.14285H214.819V0ZM214.819 5.14285H219.962V10.2857H214.819V5.14285ZM209.676 5.14285H214.819V10.2857H209.676V5.14285ZM204.534 5.14285H209.676V10.2857H204.534V5.14285ZM199.391 5.14285H204.534V10.2857H199.391V5.14285ZM194.248 5.14285H199.391V10.2857H194.248V5.14285ZM189.105 5.14285H194.248V10.2857H189.105V5.14285ZM199.391 10.2857H204.534V15.4286H199.391V10.2857ZM199.391 15.4286H204.534V20.5714H199.391V15.4286ZM199.391 20.5714H204.534V25.7143H199.391V20.5714ZM199.391 25.7143H204.534V30.8571H199.391V25.7143ZM199.391 30.8571H204.534V36H199.391V30.8571ZM199.391 36H204.534V41.1429H199.391V36ZM204.534 30.8571H209.676V36H204.534V30.8571ZM204.534 25.7143H209.676V30.8571H204.534V25.7143ZM204.534 20.5714H209.676V25.7143H204.534V20.5714ZM204.534 15.4286H209.676V20.5714H204.534V15.4286ZM204.534 10.2857H209.676V15.4286H204.534V10.2857ZM204.534 36H209.676V41.1429H204.534V36ZM204.534 41.1429H209.676V46.2857H204.534V41.1429ZM204.534 46.2857H209.676V51.4286H204.534V46.2857ZM199.391 46.2857H204.534V51.4286H199.391V46.2857ZM199.391 41.1429H204.534V46.2857H199.391V41.1429Z" fill="var(--fill-0, #337EFF)"/>
<path id="Vector_2" d="M175.556 0H185.842V10.2857H175.556V0ZM175.556 15.4286H185.842V51.4286H175.556V15.4286Z" fill="var(--fill-0, #337EFF)"/>
<path id="Vector_3" d="M136.32 0H141.463V5.14285H136.32V0ZM141.463 0H146.606V5.14285H141.463V0ZM146.606 0H151.749V5.14285H146.606V0ZM151.749 0H156.891V5.14285H151.749V0ZM156.891 0H162.034V5.14285H156.891V0ZM162.034 0H167.177V5.14285H162.034V0ZM162.034 5.14285H167.177V10.2857H162.034V5.14285ZM156.891 5.14285H162.034V10.2857H156.891V5.14285ZM151.749 5.14285H156.891V10.2857H151.749V5.14285ZM146.606 5.14285H151.749V10.2857H146.606V5.14285ZM141.463 5.14285H146.606V10.2857H141.463V5.14285ZM136.32 5.14285H141.463V10.2857H136.32V5.14285ZM167.177 5.14285H172.32V10.2857H167.177V5.14285ZM167.177 10.2857H172.32V15.4286H167.177V10.2857ZM167.177 15.4286H172.32V20.5714H167.177V15.4286ZM162.034 15.4286H167.177V20.5714H162.034V15.4286ZM162.034 10.2857H167.177V15.4286H162.034V10.2857ZM162.034 20.5714H167.177V25.7143H162.034V20.5714ZM156.891 20.5714H162.034V25.7143H156.891V20.5714ZM151.749 20.5714H156.891V25.7143H151.749V20.5714ZM146.606 20.5714H151.749V25.7143H146.606V20.5714ZM141.463 20.5714H146.606V25.7143H141.463V20.5714ZM141.463 15.4286H146.606V20.5714H141.463V15.4286ZM141.463 10.2857H146.606V15.4286H141.463V10.2857ZM136.32 10.2857H141.463V15.4286H136.32V10.2857ZM136.32 15.4286H141.463V20.5714H136.32V15.4286ZM136.32 20.5714H141.463V25.7143H136.32V20.5714ZM136.32 25.7143H141.463V30.8571H136.32V25.7143ZM141.463 25.7143H146.606V30.8571H141.463V25.7143ZM146.606 25.7143H151.749V30.8571H146.606V25.7143ZM151.749 25.7143H156.891V30.8571H151.749V25.7143ZM156.891 25.7143H162.034V30.8571H156.891V25.7143ZM162.034 25.7143H167.177V30.8571H162.034V25.7143ZM167.177 25.7143H172.32V30.8571H167.177V25.7143ZM167.177 30.8571H172.32V36H167.177V30.8571ZM162.034 30.8571H167.177V36H162.034V30.8571ZM162.034 41.1429H167.177V46.2857H162.034V41.1429ZM167.177 41.1429H172.32V46.2857H167.177V41.1429ZM167.177 36H172.32V41.1429H167.177V36ZM162.034 36H167.177V41.1429H162.034V36ZM162.034 46.2857H167.177V51.4286H162.034V46.2857ZM156.891 46.2857H162.034V51.4286H156.891V46.2857ZM151.749 46.2857H156.891V51.4286H151.749V46.2857ZM146.606 46.2857H151.749V51.4286H146.606V46.2857ZM141.463 46.2857H146.606V51.4286H141.463V46.2857ZM136.32 46.2857H141.463V51.4286H136.32V46.2857ZM136.32 41.1429H141.463V46.2857H136.32V41.1429ZM136.32 36H141.463V41.1429H136.32V36ZM136.32 30.8571H141.463V36H136.32V30.8571ZM141.463 30.8571H146.606V36H141.463V30.8571ZM141.463 36H146.606V41.1429H141.463V36ZM141.463 41.1429H146.606V46.2857H141.463V41.1429ZM146.606 41.1429H151.749V46.2857H146.606V41.1429ZM151.749 41.1429H156.891V46.2857H151.749V41.1429ZM156.891 41.1429H162.034V46.2857H156.891V41.1429Z" fill="var(--fill-0, #337EFF)"/>
<path id="Vector_4" d="M78.4725 15.4286H83.6154V20.5714H78.4725V15.4286ZM78.4725 10.2857H83.6154V15.4286H78.4725V10.2857ZM83.6154 10.2857H88.7582V15.4286H83.6154V10.2857ZM83.6154 15.4286H88.7582V20.5714H83.6154V15.4286ZM83.6154 20.5714H88.7582V25.7143H83.6154V20.5714ZM83.6154 25.7143H88.7582V30.8571H83.6154V25.7143ZM83.6154 30.8571H88.7582V36H83.6154V30.8571ZM78.4725 30.8571H83.6154V36H78.4725V30.8571ZM78.4725 25.7143H83.6154V30.8571H78.4725V25.7143ZM78.4725 20.5714H83.6154V25.7143H78.4725V20.5714ZM78.4725 36H83.6154V41.1429H78.4725V36ZM83.6154 36H88.7582V41.1429H83.6154V36ZM83.6154 41.1429H88.7582V46.2857H83.6154V41.1429ZM83.6154 46.2857H88.7582V51.4286H83.6154V46.2857ZM78.4725 46.2857H83.6154V51.4286H78.4725V46.2857ZM78.4725 41.1429H83.6154V46.2857H78.4725V41.1429ZM104.187 46.2857H109.33V51.4286H104.187V46.2857ZM109.33 41.1429H114.473V46.2857H109.33V41.1429ZM109.33 36H114.473V41.1429H109.33V36ZM109.33 30.8571H114.473V36H109.33V30.8571ZM109.33 25.7143H114.473V30.8571H109.33V25.7143ZM109.33 20.5714H114.473V25.7143H109.33V20.5714ZM109.33 15.4286H114.473V20.5714H109.33V15.4286ZM104.187 25.7143H109.33V30.8571H104.187V25.7143ZM104.187 30.8571H109.33V36H104.187V30.8571ZM104.187 36H109.33V41.1429H104.187V36ZM104.187 41.1429H109.33V46.2857H104.187V41.1429ZM104.187 20.5714H109.33V25.7143H104.187V20.5714ZM88.7582 15.4286H93.9011V20.5714H88.7582V15.4286ZM93.9011 15.4286H99.0439V20.5714H93.9011V15.4286ZM99.0439 15.4286H104.187V20.5714H99.0439V15.4286ZM99.0439 10.2857H104.187V15.4286H99.0439V10.2857ZM104.187 10.2857H109.33V15.4286H104.187V10.2857ZM104.187 15.4286H109.33V20.5714H104.187V15.4286ZM93.9011 10.2857H99.0439V15.4286H93.9011V10.2857ZM88.7582 46.2857H93.9011V51.4286H88.7582V46.2857ZM93.9011 46.2857H99.0439V51.4286H93.9011V46.2857ZM99.0439 46.2857H104.187V51.4286H99.0439V46.2857ZM99.0439 41.1429H104.187V46.2857H99.0439V41.1429ZM93.9011 41.1429H99.0439V46.2857H93.9011V41.1429ZM88.7582 41.1429H93.9011V46.2857H88.7582V41.1429ZM78.4725 51.4286H83.6154V56.5714H78.4725V51.4286ZM83.6154 51.4286H88.7582V56.5714H83.6154V51.4286ZM83.6154 56.5714H88.7582V61.7143H83.6154V56.5714ZM78.4725 56.5714H83.6154V61.7143H78.4725V56.5714Z" fill="var(--fill-0, #337EFF)"/>
<path id="Vector_5" d="M39.2362 15.4286H44.3791V20.5714H39.2362V15.4286ZM39.2362 10.2857H44.3791V15.4286H39.2362V10.2857ZM44.3791 10.2857H49.5219V15.4286H44.3791V10.2857ZM44.3791 15.4286H49.5219V20.5714H44.3791V15.4286ZM44.3791 20.5714H49.5219V25.7143H44.3791V20.5714ZM44.3791 25.7143H49.5219V30.8571H44.3791V25.7143ZM44.3791 30.8571H49.5219V36H44.3791V30.8571ZM39.2362 30.8571H44.3791V36H39.2362V30.8571ZM39.2362 25.7143H44.3791V30.8571H39.2362V25.7143ZM39.2362 20.5714H44.3791V25.7143H39.2362V20.5714ZM39.2362 36H44.3791V41.1429H39.2362V36ZM44.3791 36H49.5219V41.1429H44.3791V36ZM44.3791 41.1429H49.5219V46.2857H44.3791V41.1429ZM44.3791 46.2857H49.5219V51.4286H44.3791V46.2857ZM39.2362 46.2857H44.3791V51.4286H39.2362V46.2857ZM39.2362 41.1429H44.3791V46.2857H39.2362V41.1429ZM64.9505 46.2857H70.0934V51.4286H64.9505V46.2857ZM70.0934 41.1429H75.2362V46.2857H70.0934V41.1429ZM70.0934 36H75.2362V41.1429H70.0934V36ZM70.0934 30.8571H75.2362V36H70.0934V30.8571ZM70.0934 25.7143H75.2362V30.8571H70.0934V25.7143ZM70.0934 20.5714H75.2362V25.7143H70.0934V20.5714ZM70.0934 15.4286H75.2362V20.5714H70.0934V15.4286ZM64.9505 25.7143H70.0934V30.8571H64.9505V25.7143ZM64.9505 30.8571H70.0934V36H64.9505V30.8571ZM64.9505 36H70.0934V41.1429H64.9505V36ZM64.9505 41.1429H70.0934V46.2857H64.9505V41.1429ZM64.9505 20.5714H70.0934V25.7143H64.9505V20.5714ZM49.5219 15.4286H54.6648V20.5714H49.5219V15.4286ZM54.6648 15.4286H59.8077V20.5714H54.6648V15.4286ZM59.8077 15.4286H64.9505V20.5714H59.8077V15.4286ZM59.8077 10.2857H64.9505V15.4286H59.8077V10.2857ZM64.9505 10.2857H70.0934V15.4286H64.9505V10.2857ZM64.9505 15.4286H70.0934V20.5714H64.9505V15.4286ZM54.6648 10.2857H59.8077V15.4286H54.6648V10.2857ZM49.5219 46.2857H54.6648V51.4286H49.5219V46.2857ZM54.6648 46.2857H59.8077V51.4286H54.6648V46.2857ZM59.8077 46.2857H64.9505V51.4286H59.8077V46.2857ZM59.8077 41.1429H64.9505V46.2857H59.8077V41.1429ZM54.6648 41.1429H59.8077V46.2857H54.6648V41.1429ZM49.5219 41.1429H54.6648V46.2857H49.5219V41.1429ZM39.2362 51.4286H44.3791V56.5714H39.2362V51.4286ZM44.3791 51.4286H49.5219V56.5714H44.3791V51.4286ZM44.3791 56.5714H49.5219V61.7143H44.3791V56.5714ZM39.2362 56.5714H44.3791V61.7143H39.2362V56.5714Z" fill="var(--fill-0, #337EFF)"/>
<path id="Vector_6" d="M10.2857 5.14285H15.4286V10.2857H10.2857V5.14285ZM15.4286 5.14285H20.5714V10.2857H15.4286V5.14285ZM15.4286 0H20.5714V5.14285H15.4286V0ZM20.5714 5.14285H25.7143V10.2857H20.5714V5.14285ZM20.5714 10.2857H25.7143V15.4286H20.5714V10.2857ZM25.7143 10.2857H30.8571V15.4286H25.7143V10.2857ZM15.4286 10.2857H20.5714V15.4286H15.4286V10.2857ZM10.2857 10.2857H15.4286V15.4286H10.2857V10.2857ZM5.14286 10.2857H10.2857V15.4286H5.14286V10.2857ZM5.14286 15.4286H10.2857V20.5714H5.14286V15.4286ZM0 15.4286H5.14286V20.5714H0V15.4286ZM10.2857 15.4286H15.4286V20.5714H10.2857V15.4286ZM5.14286 20.5714H10.2857V25.7143H5.14286V20.5714ZM5.14286 25.7143H10.2857V30.8571H5.14286V25.7143ZM5.14286 30.8571H10.2857V36H5.14286V30.8571ZM10.2857 30.8571H15.4286V36H10.2857V30.8571ZM15.4286 30.8571H20.5714V36H15.4286V30.8571ZM20.5714 30.8571H25.7143V36H20.5714V30.8571ZM25.7143 30.8571H30.8571V36H25.7143V30.8571ZM30.8571 30.8571H36V36H30.8571V30.8571ZM30.8571 25.7143H36V30.8571H30.8571V25.7143ZM30.8571 20.5714H36V25.7143H30.8571V20.5714ZM30.8571 15.4286H36V20.5714H30.8571V15.4286ZM25.7143 15.4286H30.8571V20.5714H25.7143V15.4286ZM20.5714 15.4286H25.7143V20.5714H20.5714V15.4286ZM25.7143 20.5714H30.8571V25.7143H25.7143V20.5714ZM25.7143 25.7143H30.8571V30.8571H25.7143V25.7143ZM25.7143 36H30.8571V41.1429H25.7143V36ZM30.8571 36H36V41.1429H30.8571V36ZM30.8571 41.1429H36V46.2857H30.8571V41.1429ZM30.8571 46.2857H36V51.4286H30.8571V46.2857ZM25.7143 46.2857H30.8571V51.4286H25.7143V46.2857ZM25.7143 41.1429H30.8571V46.2857H25.7143V41.1429ZM20.5714 36H25.7143V41.1429H20.5714V36ZM15.4286 36H20.5714V41.1429H15.4286V36ZM10.2857 36H15.4286V41.1429H10.2857V36ZM5.14286 36H10.2857V41.1429H5.14286V36ZM5.14286 41.1429H10.2857V46.2857H5.14286V41.1429ZM5.14286 46.2857H10.2857V51.4286H5.14286V46.2857ZM0 46.2857H5.14286V51.4286H0V46.2857ZM0 41.1429H5.14286V46.2857H0V41.1429ZM0 36H5.14286V41.1429H0V36ZM0 30.8571H5.14286V36H0V30.8571ZM0 25.7143H5.14286V30.8571H0V25.7143ZM0 20.5714H5.14286V25.7143H0V20.5714Z" fill="var(--fill-0, #337EFF)"/>
</g>
</svg>
