<svg preserveAspectRatio="xMidYMid meet" width="100%" height="100%" overflow="visible" style="display: block;" viewBox="0 0 40 53.0478" fill="none" xmlns="http://www.w3.org/2000/svg">
<path id="Vector (Stroke)" d="M29.0674 0.856183C30.2474 -0.301244 32.142 -0.282808 33.2995 0.897102C38.9025 6.60859 42.1742 16.9442 38.3369 26.2899C34.9128 34.6288 26.2486 41.3019 10.6936 43.5669L15.9319 47.707C17.2286 48.7319 17.4492 50.6138 16.4244 51.9106C15.3995 53.2073 13.5175 53.4277 12.2207 52.4031L1.13697 43.6436C-0.0976269 42.6679 -0.365261 40.9027 0.523924 39.6044L9.46166 26.5544C10.3957 25.1907 12.2585 24.8423 13.6222 25.7762C14.9858 26.7102 15.3343 28.573 14.4004 29.9367L9.04371 37.7565C23.8126 35.8067 30.4112 29.8333 32.7997 24.016C35.6051 17.1835 33.1921 9.33455 29.0265 5.08831C27.8692 3.90835 27.8875 2.01364 29.0674 0.856183Z" fill="var(--fill-0, white)"/>
</svg>
