<svg width="30" height="56" viewBox="0 0 30 56" fill="none" xmlns="http://www.w3.org/2000/svg">
<path d="M18.6637 1.87206C18.0444 0.339613 16.3001 -0.400427 14.7676 0.218797C7.34945 3.21626 0.221009 11.3841 0.00507211 21.4846C-0.18752 30.4971 5.0893 40.076 18.4441 48.3667L11.988 50.0693C10.3898 50.4908 9.43571 52.1279 9.85717 53.7261C10.2786 55.3243 11.9159 56.2782 13.514 55.857L27.1743 52.255C28.6959 51.8538 29.6465 50.3425 29.35 48.7971L26.3701 33.263C26.0587 31.6398 24.4902 30.5762 22.867 30.8875C21.2437 31.1989 20.1801 32.7674 20.4914 34.3906L22.2779 43.6993C9.51782 36.0115 5.85515 27.8993 5.98956 21.6122C6.1475 14.2279 11.4953 7.99658 17.0104 5.76812C18.5427 5.14877 19.2829 3.40451 18.6637 1.87206Z" fill="white"/>
</svg>
