<svg preserveAspectRatio="xMidYMid meet" width="100%" height="100%" overflow="visible" style="display: block;" viewBox="0 0 76 173" fill="none" xmlns="http://www.w3.org/2000/svg">
<g id="Group 31">
<path id="person" d="M33.35 13.65C31.7833 12.0833 31 10.2 31 8C31 5.8 31.7833 3.91667 33.35 2.35C34.9167 0.783333 36.8 0 39 0C41.2 0 43.0833 0.783333 44.65 2.35C46.2167 3.91667 47 5.8 47 8C47 10.2 46.2167 12.0833 44.65 13.65C43.0833 15.2167 41.2 16 39 16C36.8 16 34.9167 15.2167 33.35 13.65ZM23 28V26.4C23 25.2667 23.2917 24.225 23.875 23.275C24.4583 22.325 25.2333 21.6 26.2 21.1C28.2667 20.0667 30.3667 19.2917 32.5 18.775C34.6333 18.2583 36.8 18 39 18C41.2 18 43.3667 18.2583 45.5 18.775C47.6333 19.2917 49.7333 20.0667 51.8 21.1C52.7667 21.6 53.5417 22.325 54.125 23.275C54.7083 24.225 55 25.2667 55 26.4V28C55 29.1 54.6083 30.0417 53.825 30.825C53.0417 31.6083 52.1 32 51 32H27C25.9 32 24.9583 31.6083 24.175 30.825C23.3917 30.0417 23 29.1 23 28Z" fill="var(--fill-0, #155CF4)"/>
<path id="groups_2" d="M32.5375 154C31.0597 154 29.8458 153.446 28.8958 152.337C27.9458 151.229 27.6028 149.936 27.8667 148.458L28.8167 142.758C29.2389 140.489 30.3076 138.628 32.0229 137.177C33.7382 135.726 35.7306 135 38 135C40.3222 135 42.341 135.726 44.0563 137.177C45.7715 138.628 46.8403 140.489 47.2625 142.758L48.2125 148.458C48.4764 149.936 48.1333 151.229 47.1833 152.337C46.2333 153.446 45.0194 154 43.5417 154H32.5375ZM9.81667 157.087C8.60278 157.14 7.56042 156.903 6.68958 156.375C5.81875 155.847 5.25139 155.029 4.9875 153.921C4.88194 153.446 4.85556 152.971 4.90833 152.496C4.96111 152.021 5.09306 151.572 5.30417 151.15C5.30417 151.203 5.27778 151.097 5.225 150.833C5.11944 150.728 4.85556 150.094 4.43333 148.933C4.32778 148.3 4.40694 147.693 4.67083 147.113C4.93472 146.532 5.27778 146.031 5.7 145.608L5.85833 145.45C5.96389 144.447 6.37292 143.603 7.08542 142.917C7.79792 142.231 8.68194 141.887 9.7375 141.887C9.89583 141.887 10.3972 141.993 11.2417 142.204L11.4792 142.125C11.7431 141.861 12.0861 141.663 12.5083 141.531C12.9306 141.399 13.3792 141.333 13.8542 141.333C14.4347 141.333 14.9493 141.426 15.3979 141.61C15.8465 141.795 16.2028 142.072 16.4667 142.442C16.5194 142.442 16.559 142.455 16.5854 142.481C16.6118 142.508 16.6514 142.521 16.7042 142.521C17.4431 142.574 18.0896 142.798 18.6438 143.194C19.1979 143.59 19.6069 144.131 19.8708 144.817C19.9764 145.186 20.016 145.542 19.9896 145.885C19.9632 146.228 19.8972 146.558 19.7917 146.875C19.7917 146.928 19.8181 147.033 19.8708 147.192C20.2403 147.561 20.5306 147.97 20.7417 148.419C20.9528 148.867 21.0583 149.329 21.0583 149.804C21.0583 150.015 20.9 150.569 20.5833 151.467C20.5306 151.572 20.5306 151.678 20.5833 151.783L20.7417 153.05C20.7417 154.158 20.2799 155.108 19.3563 155.9C18.4326 156.692 17.3111 157.087 15.9917 157.087H9.81667ZM63.3333 157.167C61.5917 157.167 60.1007 156.547 58.8604 155.306C57.6201 154.066 57 152.575 57 150.833C57 150.2 57.0924 149.606 57.2771 149.052C57.4618 148.498 57.7125 147.957 58.0292 147.429L55.8125 145.45C55.2847 145.028 55.1924 144.5 55.5354 143.867C55.8785 143.233 56.3667 142.917 57 142.917H63.3333C65.075 142.917 66.566 143.537 67.8063 144.777C69.0465 146.017 69.6667 147.508 69.6667 149.25V150.833C69.6667 152.575 69.0465 154.066 67.8063 155.306C66.566 156.547 65.075 157.167 63.3333 157.167ZM0 169.833V168.013C0 165.69 1.17431 163.83 3.52292 162.431C5.87153 161.033 8.91944 160.333 12.6667 160.333C13.3528 160.333 14.0125 160.347 14.6458 160.373C15.2792 160.399 15.8861 160.465 16.4667 160.571C15.7278 161.626 15.1736 162.761 14.8042 163.975C14.4347 165.189 14.25 166.482 14.25 167.854V173H3.16667C2.26944 173 1.51736 172.697 0.910417 172.09C0.303472 171.483 0 170.731 0 169.833ZM19 169.833V167.854C19 164.424 20.7549 161.653 24.2646 159.542C27.7743 157.431 32.3528 156.375 38 156.375C43.7 156.375 48.2917 157.431 51.775 159.542C55.2583 161.653 57 164.424 57 167.854V169.833C57 170.731 56.6965 171.483 56.0896 172.09C55.4826 172.697 54.7306 173 53.8333 173H22.1667C21.2694 173 20.5174 172.697 19.9104 172.09C19.3035 171.483 19 170.731 19 169.833ZM63.3333 160.333C67.1333 160.333 70.1944 161.033 72.5167 162.431C74.8389 163.83 76 165.69 76 168.013V169.833C76 170.731 75.6965 171.483 75.0896 172.09C74.4826 172.697 73.7306 173 72.8333 173H61.75V167.854C61.75 166.482 61.5785 165.189 61.2354 163.975C60.8924 162.761 60.3778 161.626 59.6917 160.571C60.2722 160.465 60.866 160.399 61.4729 160.373C62.0799 160.347 62.7 160.333 63.3333 160.333Z" fill="var(--fill-0, #155CF4)"/>
<path id="group" d="M15 92.875C15 91.6354 15.3182 90.4961 15.9545 89.457C16.5909 88.418 17.4364 87.625 18.4909 87.0781C20.7455 85.9479 23.0364 85.1003 25.3636 84.5352C27.6909 83.9701 30.0545 83.6875 32.4545 83.6875C34.8545 83.6875 37.2182 83.9701 39.5455 84.5352C41.8727 85.1003 44.1636 85.9479 46.4182 87.0781C47.4727 87.625 48.3182 88.418 48.9545 89.457C49.5909 90.4961 49.9091 91.6354 49.9091 92.875V94.625C49.9091 95.8281 49.4818 96.8581 48.6273 97.7148C47.7727 98.5716 46.7455 99 45.5455 99H19.3636C18.1636 99 17.1364 98.5716 16.2818 97.7148C15.4273 96.8581 15 95.8281 15 94.625V92.875ZM53.0727 99C53.4727 98.3437 53.7727 97.6419 53.9727 96.8945C54.1727 96.1471 54.2727 95.3906 54.2727 94.625V92.4375C54.2727 90.8333 53.8273 89.293 52.9364 87.8164C52.0455 86.3398 50.7818 85.0729 49.1455 84.0156C51 84.2344 52.7455 84.6081 54.3818 85.1367C56.0182 85.6654 57.5455 86.3125 58.9636 87.0781C60.2727 87.8073 61.2727 88.6185 61.9636 89.5117C62.6545 90.4049 63 91.3802 63 92.4375V94.625C63 95.8281 62.5727 96.8581 61.7182 97.7148C60.8636 98.5716 59.8364 99 58.6364 99H53.0727ZM26.2909 78.9297C24.5818 77.2161 23.7273 75.1563 23.7273 72.75C23.7273 70.3437 24.5818 68.2839 26.2909 66.5703C28 64.8568 30.0545 64 32.4545 64C34.8545 64 36.9091 64.8568 38.6182 66.5703C40.3273 68.2839 41.1818 70.3437 41.1818 72.75C41.1818 75.1563 40.3273 77.2161 38.6182 78.9297C36.9091 80.6432 34.8545 81.5 32.4545 81.5C30.0545 81.5 28 80.6432 26.2909 78.9297ZM51.7091 78.9297C50 80.6432 47.9455 81.5 45.5455 81.5C45.1455 81.5 44.6364 81.4544 44.0182 81.3633C43.4 81.2721 42.8909 81.1719 42.4909 81.0625C43.4727 79.8958 44.2273 78.6016 44.7545 77.1797C45.2818 75.7578 45.5455 74.2812 45.5455 72.75C45.5455 71.2188 45.2818 69.7422 44.7545 68.3203C44.2273 66.8984 43.4727 65.6042 42.4909 64.4375C43 64.2552 43.5091 64.1367 44.0182 64.082C44.5273 64.0273 45.0364 64 45.5455 64C47.9455 64 50 64.8568 51.7091 66.5703C53.4182 68.2839 54.2727 70.3437 54.2727 72.75C54.2727 75.1563 53.4182 77.2161 51.7091 78.9297Z" fill="var(--fill-0, #155CF4)"/>
</g>
</svg>
