<svg preserveAspectRatio="xMidYMid meet" width="100%" height="100%" overflow="visible" style="display: block;" viewBox="0 0 1711.17 1255.98" fill="none" xmlns="http://www.w3.org/2000/svg">
<path id="Vector" d="M943.171 31.2634C791.123 5.00462 715.099 -8.12478 640.829 5.38043C638.105 5.87567 635.386 6.39746 632.672 6.94572C558.665 21.8968 461.261 65.2191 328.719 146.094C135.299 264.116 38.589 323.127 9.23154 421.066C8.19387 424.528 7.22524 428.011 6.32625 431.513C-19.1077 530.602 33.6727 624.113 137.243 829.187L148.744 851.961C265.065 1072.39 268.626 1141.89 421.601 1220.72C589.672 1290.75 785.997 1243.25 1068.03 1192.27L1242.72 1160.7C1466.52 1120.25 1578.42 1100.02 1645.82 1021.88C1652.8 1013.79 1659.34 1005.33 1665.43 996.512C1712.48 928.331 1717.92 902.705 1705.36 669.759C1692.68 434.832 1685.35 326.394 1619.77 243.026C1612.94 234.351 1605.7 226.035 1598.06 218.108C1524.65 141.929 1381.92 107.036 1155.92 68.0057L943.171 31.2634Z" fill="var(--fill-0, #FFBB00)"/>
</svg>
