<svg width="683" height="620" viewBox="0 0 683 620" fill="none" xmlns="http://www.w3.org/2000/svg">
<path d="M251.693 0.457353C203.984 -3.35777 157.31 16.8926 128.668 53.834L27.1028 184.83C3.73874 214.964 -5.08901 252.992 2.84918 289.307L50.2395 486.111C57.3311 518.554 80.9359 545.31 113.242 557.525L266.917 605.509C310.917 619.009 386.417 632.509 448.917 592.509L591.695 507.419C630.986 487.893 652.24 445.681 658.905 404.146L680.468 289.767C685.589 257.852 678.107 225.428 659.468 198.772L583.354 71.9339C565.877 46.9393 537.358 30.9483 505.748 28.4206L251.693 0.457353Z" fill="#181057"/>
</svg>
