<svg preserveAspectRatio="xMidYMid meet" width="100%" height="100%" overflow="visible" style="display: block;" viewBox="0 0 677.098 631.732" fill="none" xmlns="http://www.w3.org/2000/svg">
<path id="Vector 2" d="M285.945 3.31567C239.187 -6.90348 190.207 6.86237 156.842 39.6003L38.526 155.69C11.3087 182.395 -2.57057 218.883 0.393675 255.938L20.7893 457.337C23.4374 490.44 43.2151 520.137 73.5773 536.601L219.37 604.886C261.145 624.201 334.133 647.767 401.459 616.568L554.415 551.526C595.982 537.482 622.739 498.525 634.948 458.27L671.751 347.847C681.132 316.915 678.094 283.778 663.224 254.851L604.924 118.9C590.981 91.7755 564.88 72.0817 533.902 65.3111L285.945 3.31567Z" fill="var(--fill-0, #181057)"/>
</svg>
