<svg width="1440" height="1247" viewBox="0 0 1440 1247" fill="none" xmlns="http://www.w3.org/2000/svg">
<path d="M786.3 1184.69C638.346 1228.48 564.368 1250.38 489.03 1245.62C486.268 1245.44 483.507 1245.24 480.747 1245.01C405.502 1238.78 303.714 1207.1 162.654 1142.22C-43.1972 1047.53 -146.123 1000.19 -186.689 906.335C-188.123 903.018 -189.491 899.671 -190.792 896.297C-227.595 800.846 -186.067 701.823 -107.091 486.08L-98.3208 462.122C-8.46924 229.648 -13.0285 160.203 129.722 64.0838C288.492 -25.0433 489.013 -0.735863 775.063 17.0396L952.239 28.0493C1179.23 42.1549 1292.73 49.2074 1368.77 118.965C1376.64 126.184 1384.13 133.833 1391.2 141.879C1445.87 204.115 1454.26 228.932 1468.92 461.756C1483.7 696.56 1489.05 805.113 1433.62 895.554C1427.86 904.964 1421.63 914.068 1414.96 922.831C1350.92 1007.04 1213.24 1058.32 993.323 1123.42L786.3 1184.69Z" fill="#FFBB00"/>
</svg>
