<svg preserveAspectRatio="xMidYMid meet" width="100%" height="100%" overflow="visible" style="display: block;" viewBox="0 0 178.393 50.0505" fill="none" xmlns="http://www.w3.org/2000/svg">
<g id="App BiT">
<path id="Vector" d="M153.368 0H157.539V4.1709H153.368V0ZM157.539 0H161.71V4.1709H157.539V0ZM161.71 0H165.881V4.1709H161.71V0ZM165.881 0H170.051V4.1709H165.881V0ZM170.051 0H174.222V4.1709H170.051V0ZM174.222 0H178.393V4.1709H174.222V0ZM174.222 4.1709H178.393V8.34181H174.222V4.1709ZM170.051 4.1709H174.222V8.34181H170.051V4.1709ZM165.881 4.1709H170.051V8.34181H165.881V4.1709ZM161.71 4.1709H165.881V8.34181H161.71V4.1709ZM157.539 4.1709H161.71V8.34181H157.539V4.1709ZM153.368 4.1709H157.539V8.34181H153.368V4.1709ZM161.71 8.34181H165.881V12.5127H161.71V8.34181ZM161.71 12.5127H165.881V16.6836H161.71V12.5127ZM161.71 16.6836H165.881V20.8545H161.71V16.6836ZM161.71 20.8545H165.881V25.0254H161.71V20.8545ZM161.71 25.0254H165.881V29.1963H161.71V25.0254ZM161.71 29.1963H165.881V33.3672H161.71V29.1963ZM165.881 25.0254H170.051V29.1963H165.881V25.0254ZM165.881 20.8545H170.051V25.0254H165.881V20.8545ZM165.881 16.6836H170.051V20.8545H165.881V16.6836ZM165.881 12.5127H170.051V16.6836H165.881V12.5127ZM165.881 8.34181H170.051V12.5127H165.881V8.34181ZM165.881 29.1963H170.051V33.3672H165.881V29.1963ZM165.881 33.3672H170.051V37.5381H165.881V33.3672ZM165.881 37.5381H170.051V41.709H165.881V37.5381ZM161.71 37.5381H165.881V41.709H161.71V37.5381ZM161.71 33.3672H165.881V37.5381H161.71V33.3672Z" fill="var(--fill-0, #155CF4)"/>
<path id="Vector_2" d="M142.379 0H150.721V8.34181H142.379V0ZM142.379 12.5127H150.721V41.709H142.379V12.5127Z" fill="var(--fill-0, #155CF4)"/>
<path id="Vector_3" d="M110.558 0H114.729V4.1709H110.558V0ZM114.729 0H118.9V4.1709H114.729V0ZM118.9 0H123.07V4.1709H118.9V0ZM123.07 0H127.241V4.1709H123.07V0ZM127.241 0H131.412V4.1709H127.241V0ZM131.412 0H135.583V4.1709H131.412V0ZM131.412 4.1709H135.583V8.34181H131.412V4.1709ZM127.241 4.1709H131.412V8.34181H127.241V4.1709ZM123.07 4.1709H127.241V8.34181H123.07V4.1709ZM118.9 4.1709H123.07V8.34181H118.9V4.1709ZM114.729 4.1709H118.9V8.34181H114.729V4.1709ZM110.558 4.1709H114.729V8.34181H110.558V4.1709ZM135.583 4.1709H139.754V8.34181H135.583V4.1709ZM135.583 8.34181H139.754V12.5127H135.583V8.34181ZM135.583 12.5127H139.754V16.6836H135.583V12.5127ZM131.412 12.5127H135.583V16.6836H131.412V12.5127ZM131.412 8.34181H135.583V12.5127H131.412V8.34181ZM131.412 16.6836H135.583V20.8545H131.412V16.6836ZM127.241 16.6836H131.412V20.8545H127.241V16.6836ZM123.07 16.6836H127.241V20.8545H123.07V16.6836ZM118.9 16.6836H123.07V20.8545H118.9V16.6836ZM114.729 16.6836H118.9V20.8545H114.729V16.6836ZM114.729 12.5127H118.9V16.6836H114.729V12.5127ZM114.729 8.34181H118.9V12.5127H114.729V8.34181ZM110.558 8.34181H114.729V12.5127H110.558V8.34181ZM110.558 12.5127H114.729V16.6836H110.558V12.5127ZM110.558 16.6836H114.729V20.8545H110.558V16.6836ZM110.558 20.8545H114.729V25.0254H110.558V20.8545ZM114.729 20.8545H118.9V25.0254H114.729V20.8545ZM118.9 20.8545H123.07V25.0254H118.9V20.8545ZM123.07 20.8545H127.241V25.0254H123.07V20.8545ZM127.241 20.8545H131.412V25.0254H127.241V20.8545ZM131.412 20.8545H135.583V25.0254H131.412V20.8545ZM135.583 20.8545H139.754V25.0254H135.583V20.8545ZM135.583 25.0254H139.754V29.1963H135.583V25.0254ZM131.412 25.0254H135.583V29.1963H131.412V25.0254ZM131.412 33.3672H135.583V37.5381H131.412V33.3672ZM135.583 33.3672H139.754V37.5381H135.583V33.3672ZM135.583 29.1963H139.754V33.3672H135.583V29.1963ZM131.412 29.1963H135.583V33.3672H131.412V29.1963ZM131.412 37.5381H135.583V41.709H131.412V37.5381ZM127.241 37.5381H131.412V41.709H127.241V37.5381ZM123.07 37.5381H127.241V41.709H123.07V37.5381ZM118.9 37.5381H123.07V41.709H118.9V37.5381ZM114.729 37.5381H118.9V41.709H114.729V37.5381ZM110.558 37.5381H114.729V41.709H110.558V37.5381ZM110.558 33.3672H114.729V37.5381H110.558V33.3672ZM110.558 29.1963H114.729V33.3672H110.558V29.1963ZM110.558 25.0254H114.729V29.1963H110.558V25.0254ZM114.729 25.0254H118.9V29.1963H114.729V25.0254ZM114.729 29.1963H118.9V33.3672H114.729V29.1963ZM114.729 33.3672H118.9V37.5381H114.729V33.3672ZM118.9 33.3672H123.07V37.5381H118.9V33.3672ZM123.07 33.3672H127.241V37.5381H123.07V33.3672ZM127.241 33.3672H131.412V37.5381H127.241V33.3672Z" fill="var(--fill-0, #155CF4)"/>
<path id="Vector_4" d="M63.6434 12.5124H67.8143V16.6833H63.6434V12.5124ZM63.6434 8.34147H67.8143V12.5124H63.6434V8.34147ZM67.8143 8.34147H71.9852V12.5124H67.8143V8.34147ZM67.8143 12.5124H71.9852V16.6833H67.8143V12.5124ZM67.8143 16.6833H71.9852V20.8542H67.8143V16.6833ZM67.8143 20.8542H71.9852V25.0251H67.8143V20.8542ZM67.8143 25.0251H71.9852V29.196H67.8143V25.0251ZM63.6434 25.0251H67.8143V29.196H63.6434V25.0251ZM63.6434 20.8542H67.8143V25.0251H63.6434V20.8542ZM63.6434 16.6833H67.8143V20.8542H63.6434V16.6833ZM63.6434 29.196H67.8143V33.3669H63.6434V29.196ZM67.8143 29.196H71.9852V33.3669H67.8143V29.196ZM67.8143 33.3669H71.9852V37.5378H67.8143V33.3669ZM67.8143 37.5378H71.9852V41.7087H67.8143V37.5378ZM63.6434 37.5378H67.8143V41.7087H63.6434V37.5378ZM63.6434 33.3669H67.8143V37.5378H63.6434V33.3669ZM84.4979 37.5378H88.6687V41.7087H84.4979V37.5378ZM88.6687 33.3669H92.8396V37.5378H88.6687V33.3669ZM88.6687 29.196H92.8396V33.3669H88.6687V29.196ZM88.6687 25.0251H92.8396V29.196H88.6687V25.0251ZM88.6687 20.8542H92.8396V25.0251H88.6687V20.8542ZM88.6687 16.6833H92.8396V20.8542H88.6687V16.6833ZM88.6687 12.5124H92.8396V16.6833H88.6687V12.5124ZM84.4979 20.8542H88.6687V25.0251H84.4979V20.8542ZM84.4979 25.0251H88.6687V29.196H84.4979V25.0251ZM84.4979 29.196H88.6687V33.3669H84.4979V29.196ZM84.4979 33.3669H88.6687V37.5378H84.4979V33.3669ZM84.4979 16.6833H88.6687V20.8542H84.4979V16.6833ZM71.9852 12.5124H76.1561V16.6833H71.9852V12.5124ZM76.1561 12.5124H80.327V16.6833H76.1561V12.5124ZM80.327 12.5124H84.4979V16.6833H80.327V12.5124ZM80.327 8.34147H84.4979V12.5124H80.327V8.34147ZM84.4979 8.34147H88.6687V12.5124H84.4979V8.34147ZM84.4979 12.5124H88.6687V16.6833H84.4979V12.5124ZM76.1561 8.34147H80.327V12.5124H76.1561V8.34147ZM71.9852 37.5378H76.1561V41.7087H71.9852V37.5378ZM76.1561 37.5378H80.327V41.7087H76.1561V37.5378ZM80.327 37.5378H84.4979V41.7087H80.327V37.5378ZM80.327 33.3669H84.4979V37.5378H80.327V33.3669ZM76.1561 33.3669H80.327V37.5378H76.1561V33.3669ZM71.9852 33.3669H76.1561V37.5378H71.9852V33.3669ZM63.6434 41.7087H67.8143V45.8796H63.6434V41.7087ZM67.8143 41.7087H71.9852V45.8796H67.8143V41.7087ZM67.8143 45.8796H71.9852V50.0505H67.8143V45.8796ZM63.6434 45.8796H67.8143V50.0505H63.6434V45.8796Z" fill="var(--fill-0, #155CF4)"/>
<path id="Vector_5" d="M31.8217 12.5124H35.9926V16.6833H31.8217V12.5124ZM31.8217 8.34147H35.9926V12.5124H31.8217V8.34147ZM35.9926 8.34147H40.1635V12.5124H35.9926V8.34147ZM35.9926 12.5124H40.1635V16.6833H35.9926V12.5124ZM35.9926 16.6833H40.1635V20.8542H35.9926V16.6833ZM35.9926 20.8542H40.1635V25.0251H35.9926V20.8542ZM35.9926 25.0251H40.1635V29.196H35.9926V25.0251ZM31.8217 25.0251H35.9926V29.196H31.8217V25.0251ZM31.8217 20.8542H35.9926V25.0251H31.8217V20.8542ZM31.8217 16.6833H35.9926V20.8542H31.8217V16.6833ZM31.8217 29.196H35.9926V33.3669H31.8217V29.196ZM35.9926 29.196H40.1635V33.3669H35.9926V29.196ZM35.9926 33.3669H40.1635V37.5378H35.9926V33.3669ZM35.9926 37.5378H40.1635V41.7087H35.9926V37.5378ZM31.8217 37.5378H35.9926V41.7087H31.8217V37.5378ZM31.8217 33.3669H35.9926V37.5378H31.8217V33.3669ZM52.6761 37.5378H56.847V41.7087H52.6761V37.5378ZM56.847 33.3669H61.0179V37.5378H56.847V33.3669ZM56.847 29.196H61.0179V33.3669H56.847V29.196ZM56.847 25.0251H61.0179V29.196H56.847V25.0251ZM56.847 20.8542H61.0179V25.0251H56.847V20.8542ZM56.847 16.6833H61.0179V20.8542H56.847V16.6833ZM56.847 12.5124H61.0179V16.6833H56.847V12.5124ZM52.6761 20.8542H56.847V25.0251H52.6761V20.8542ZM52.6761 25.0251H56.847V29.196H52.6761V25.0251ZM52.6761 29.196H56.847V33.3669H52.6761V29.196ZM52.6761 33.3669H56.847V37.5378H52.6761V33.3669ZM52.6761 16.6833H56.847V20.8542H52.6761V16.6833ZM40.1635 12.5124H44.3344V16.6833H40.1635V12.5124ZM44.3344 12.5124H48.5053V16.6833H44.3344V12.5124ZM48.5053 12.5124H52.6761V16.6833H48.5053V12.5124ZM48.5053 8.34147H52.6761V12.5124H48.5053V8.34147ZM52.6761 8.34147H56.847V12.5124H52.6761V8.34147ZM52.6761 12.5124H56.847V16.6833H52.6761V12.5124ZM44.3344 8.34147H48.5053V12.5124H44.3344V8.34147ZM40.1635 37.5378H44.3344V41.7087H40.1635V37.5378ZM44.3344 37.5378H48.5053V41.7087H44.3344V37.5378ZM48.5053 37.5378H52.6761V41.7087H48.5053V37.5378ZM48.5053 33.3669H52.6761V37.5378H48.5053V33.3669ZM44.3344 33.3669H48.5053V37.5378H44.3344V33.3669ZM40.1635 33.3669H44.3344V37.5378H40.1635V33.3669ZM31.8217 41.7087H35.9926V45.8796H31.8217V41.7087ZM35.9926 41.7087H40.1635V45.8796H35.9926V41.7087ZM35.9926 45.8796H40.1635V50.0505H35.9926V45.8796ZM31.8217 45.8796H35.9926V50.0505H31.8217V45.8796Z" fill="var(--fill-0, #155CF4)"/>
<path id="Vector_6" d="M8.34177 4.1709H12.5127V8.34181H8.34177V4.1709ZM12.5127 4.1709H16.6835V8.34181H12.5127V4.1709ZM12.5127 0H16.6835V4.1709H12.5127V0ZM16.6835 4.1709H20.8544V8.34181H16.6835V4.1709ZM16.6835 8.34181H20.8544V12.5127H16.6835V8.34181ZM20.8544 8.34181H25.0253V12.5127H20.8544V8.34181ZM12.5127 8.34181H16.6835V12.5127H12.5127V8.34181ZM8.34177 8.34181H12.5127V12.5127H8.34177V8.34181ZM4.17088 8.34181H8.34177V12.5127H4.17088V8.34181ZM4.17088 12.5127H8.34177V16.6836H4.17088V12.5127ZM0 12.5127H4.17088V16.6836H0V12.5127ZM8.34177 12.5127H12.5127V16.6836H8.34177V12.5127ZM4.17088 16.6836H8.34177V20.8545H4.17088V16.6836ZM4.17088 20.8545H8.34177V25.0254H4.17088V20.8545ZM4.17088 25.0254H8.34177V29.1963H4.17088V25.0254ZM8.34177 25.0254H12.5127V29.1963H8.34177V25.0254ZM12.5127 25.0254H16.6835V29.1963H12.5127V25.0254ZM16.6835 25.0254H20.8544V29.1963H16.6835V25.0254ZM20.8544 25.0254H25.0253V29.1963H20.8544V25.0254ZM25.0253 25.0254H29.1962V29.1963H25.0253V25.0254ZM25.0253 20.8545H29.1962V25.0254H25.0253V20.8545ZM25.0253 16.6836H29.1962V20.8545H25.0253V16.6836ZM25.0253 12.5127H29.1962V16.6836H25.0253V12.5127ZM20.8544 12.5127H25.0253V16.6836H20.8544V12.5127ZM16.6835 12.5127H20.8544V16.6836H16.6835V12.5127ZM20.8544 16.6836H25.0253V20.8545H20.8544V16.6836ZM20.8544 20.8545H25.0253V25.0254H20.8544V20.8545ZM20.8544 29.1963H25.0253V33.3672H20.8544V29.1963ZM25.0253 29.1963H29.1962V33.3672H25.0253V29.1963ZM25.0253 33.3672H29.1962V37.5381H25.0253V33.3672ZM25.0253 37.5381H29.1962V41.709H25.0253V37.5381ZM20.8544 37.5381H25.0253V41.709H20.8544V37.5381ZM20.8544 33.3672H25.0253V37.5381H20.8544V33.3672ZM16.6835 29.1963H20.8544V33.3672H16.6835V29.1963ZM12.5127 29.1963H16.6835V33.3672H12.5127V29.1963ZM8.34177 29.1963H12.5127V33.3672H8.34177V29.1963ZM4.17088 29.1963H8.34177V33.3672H4.17088V29.1963ZM4.17088 33.3672H8.34177V37.5381H4.17088V33.3672ZM4.17088 37.5381H8.34177V41.709H4.17088V37.5381ZM0 37.5381H4.17088V41.709H0V37.5381ZM0 33.3672H4.17088V37.5381H0V33.3672ZM0 29.1963H4.17088V33.3672H0V29.1963ZM0 25.0254H4.17088V29.1963H0V25.0254ZM0 20.8545H4.17088V25.0254H0V20.8545ZM0 16.6836H4.17088V20.8545H0V16.6836Z" fill="var(--fill-0, #155CF4)"/>
</g>
</svg>
