<svg preserveAspectRatio="xMidYMid meet" width="100%" height="100%" overflow="visible" style="display: block;" viewBox="0 0 342.841 89.5364" fill="none" xmlns="http://www.w3.org/2000/svg">
<g id="Hackathon">
<path id="Vector" d="M304.697 21.0476C307.731 19.4339 309.858 19.1845 311.076 20.2992C311.714 20.9014 312.096 21.7939 312.222 22.9768L312.259 23.3316C313.794 21.1115 316.665 19.0845 320.873 17.2508C325.311 15.3447 329.054 14.5411 332.1 14.84C336.065 15.2329 338.51 17.5334 339.435 21.7415C340.194 25.2972 339.851 29.9508 338.403 35.7023C337.891 37.1919 337.494 38.4063 337.211 39.3454C336.97 40.2322 336.745 41.0455 336.536 41.7853C336.062 43.1753 335.26 44.8632 334.131 46.849C333.524 48.3487 332.457 49.5623 330.929 50.4899C329.447 51.4125 327.931 52.004 326.38 52.2642C324.881 52.5667 323.602 52.4631 322.543 51.9534C321.489 51.491 321.108 50.5985 321.398 49.2758C322.175 46.227 322.791 43.4584 323.244 40.9701C323.698 38.4818 324.213 36.3459 324.79 34.5623C325.244 32.0741 325.178 30.55 324.592 29.9901C324.116 29.5621 323.39 29.7108 322.414 30.4363C321.576 31.0994 321.007 31.8296 320.709 32.6267C319.923 33.3321 318.575 35.963 316.666 40.5195C316.129 41.7726 315.592 43.0257 315.055 44.2788C314.56 45.4795 314.082 46.6068 313.619 47.6606C313.204 48.7094 312.819 49.5876 312.463 50.2951C312.155 50.9977 311.845 51.4611 311.534 51.6855C311.275 51.9522 311.03 52.1217 310.799 52.1941C310.62 52.3088 310.464 52.421 310.332 52.5307C310.2 52.6404 310.114 52.9605 310.075 53.491C310.001 54.5992 308.951 55.524 306.924 56.2652C303.655 57.4732 300.612 57.6523 297.795 56.8028C296.856 56.5196 296.091 56.0745 295.5 55.4673C294.181 53.4062 295.265 45.8034 298.751 32.6588C299.983 28.0306 300.814 25.2631 301.244 24.3563C302.236 22.4329 302.885 21.3354 303.191 21.0637C303.545 20.787 304.046 20.7816 304.697 21.0476Z" fill="var(--fill-0, #181057)"/>
<path id="Vector_2" d="M266.316 25.5477C267.234 24.7327 268.447 24.4366 269.954 24.6596C270.243 24.6768 270.529 24.6703 270.813 24.6402C271.628 22.4007 273.308 21.0982 275.853 20.7326C276.51 20.615 277.42 20.3989 278.583 20.0842C279.746 19.7695 281.17 19.6663 282.856 19.7745C284.59 19.8778 286.133 20.2165 287.486 20.7907C290.438 22.0087 292.348 24.0071 293.217 26.7857C294.794 30.8289 295.11 35.3886 294.165 40.4648C293.181 46.0714 290.993 50.7053 287.602 54.3664C286.059 56.0611 284.361 57.198 282.509 57.7772C280.661 58.4038 278.983 58.821 277.474 59.0288C275.965 59.2367 274.569 59.3848 273.287 59.4729C272.057 59.6034 270.838 59.613 269.63 59.5019C267.02 59.2524 264.786 58.2692 262.93 56.5523C260.764 54.6289 259.585 51.4047 259.392 46.8798C259.16 42.8853 259.729 38.7819 261.101 34.5696C262.514 30.3049 264.253 27.2976 266.316 25.5477ZM280.32 38.4882C279.177 38.9922 278.083 39.2757 277.037 39.3388C276.571 39.9144 276.159 40.5323 275.798 41.1926C275.48 41.8005 275.017 42.3998 274.41 42.9905C273.798 43.5339 273.486 43.7583 273.476 43.6636C272.792 44.8845 272.255 46.1376 271.865 47.4229C271.47 48.661 271.598 49.8675 272.249 51.0424C274.162 51.031 275.553 50.8356 276.422 50.4564C277.29 50.0772 278.061 49.4453 278.732 48.5607C279.451 47.671 279.966 46.6595 280.277 45.5261C280.912 43.4013 280.927 41.0553 280.32 38.4882Z" fill="var(--fill-0, #181057)"/>
<path id="Vector_3" d="M256.035 49.605C256.301 52.1126 256.839 54.2564 257.65 56.0365C257.81 57.5505 257.568 58.6527 256.924 59.343C256.284 60.0807 255.421 60.5072 254.332 60.6226C253.297 60.7804 252.162 60.6854 250.929 60.3377C249.701 60.0373 248.626 59.601 247.704 59.029C246.83 58.4519 246.254 57.9866 245.977 57.6332C245.696 57.2325 245.252 56.6575 244.646 55.9084C243.445 52.2559 242.808 49.8594 242.735 48.7188C242.662 47.5783 242.654 46.5983 242.711 45.7789C240.475 47.2599 238.956 48.4976 238.152 49.4919C236.672 51.3235 235.502 53.6007 234.643 56.3234C234.485 58.4453 234.293 59.5661 234.066 59.6859C233.845 59.8529 233.547 59.9801 233.174 60.0676C232.8 60.1551 232.416 60.3633 232.02 60.6923C231.624 61.0214 231.247 61.3006 230.889 61.53C230.53 61.7594 230.172 61.9888 229.813 62.2182C228.969 62.834 228.406 63.1569 228.122 63.187C225.515 64.3247 222.896 64.2197 220.266 62.8719C219.149 62.2726 218.25 61.4589 217.567 60.4309C216.878 59.3556 216.608 58.1641 216.757 56.8566C217.863 47.8877 219.709 38.673 222.294 29.2124C223.883 23.4459 225.501 18.8486 227.147 15.4205C227.54 14.6133 227.928 13.7588 228.31 12.8569C229.123 11.0483 229.686 9.81632 230 9.16109C229.396 7.98111 229.283 6.91655 229.661 5.96741C230.081 4.96593 230.76 4.15229 231.699 3.52646C232.679 2.84831 233.822 2.34435 235.127 2.0146C236.432 1.68485 237.683 1.52822 238.881 1.54472C241.765 1.66948 243.397 2.62079 243.777 4.39865C243.583 5.2804 243.289 6.3403 242.894 7.57835C242.546 8.81137 242.177 10.0706 241.787 11.3559C241.44 12.5889 241.084 13.751 240.722 14.8421C240.406 15.9281 240.158 16.7439 239.976 17.2895C239.837 17.7827 239.62 18.667 239.325 19.9423C239.072 21.1653 238.784 22.5116 238.461 23.9812C238.181 25.3984 237.914 26.7185 237.661 27.9415L237.073 30.5158C236.954 31.1983 236.754 32.2482 236.474 33.6654C236.189 35.0354 235.915 36.739 235.652 38.7764C236.217 38.238 236.656 37.6412 236.97 36.986C237.325 36.2784 237.839 35.4824 238.511 34.5977C239.23 33.7081 240.164 32.8195 241.314 31.9321C242.506 30.9922 243.799 30.3288 245.194 29.9417C248.214 29.0951 251.111 29.7926 253.884 32.0343C255.978 33.7262 256.87 36.5023 256.562 40.3627C256.443 41.9541 256.257 43.5768 256.001 45.2306C255.789 46.8321 255.8 48.2902 256.035 49.605Z" fill="var(--fill-0, #181057)"/>
<path id="Vector_4" d="M201.776 9.35518L201.817 9.06377L202.388 8.35729C202.778 7.07194 203.268 6.27836 203.858 5.97656C204.179 5.84681 204.592 5.68336 205.098 5.48623C205.603 5.28909 206.251 4.86148 207.043 4.20339C207.304 3.50588 207.96 3.14923 209.011 3.13347C210.057 3.0704 211.109 3.29371 212.168 3.80342C213.269 4.2608 214.182 4.97733 214.908 5.953C215.68 6.92366 215.961 7.99432 215.751 9.16497C215.535 10.2883 215.339 11.1464 215.162 11.7393C215.028 12.2798 214.868 12.7992 214.682 13.2974C214.543 13.7906 214.34 14.3623 214.074 15.0125C213.851 15.6104 213.555 16.4312 213.187 17.475L211.364 22.6203C211.193 23.2605 211.018 23.638 210.839 23.7526C210.707 23.8623 210.582 24.043 210.465 24.2946C210.881 24.1548 211.229 24.0462 211.507 23.9688C211.786 23.8914 212.065 23.814 212.344 23.7365C212.996 23.5717 213.743 23.3967 214.585 23.2118C215.115 23.2512 215.57 23.2509 215.948 23.2107L216.942 23.1054C217.51 23.0451 218.213 23.138 219.053 23.3839C219.887 23.5825 220.463 24.0477 220.78 24.7797C221.097 25.5116 221.203 26.2898 221.099 27.1142C220.99 27.8913 220.687 28.6411 220.189 29.3637C219.692 30.0863 218.996 30.519 218.102 30.6616C214.106 32.2337 211.238 33.1599 209.498 33.4401L209.124 33.9821L209.132 34.0531C208.779 35.2388 208.412 36.7371 208.03 38.5479C207.69 40.3064 207.297 42.238 206.85 44.3427C206.446 46.3952 206.028 48.5447 205.596 50.7914C205.16 52.9908 204.692 55.1217 204.193 57.1841C202.629 64.0962 201.357 67.8914 200.376 68.5695C200.018 68.7989 199.628 68.9599 199.208 69.0523C198.839 69.1871 198.634 69.2807 198.591 69.333C196.925 69.414 195.518 69.2283 194.37 68.7759C193.221 68.3236 192.43 67.8572 191.997 67.3769C191.563 66.8966 191.406 66.3152 191.525 65.6328C191.55 57.3048 192.392 48.1008 194.051 38.0209C193.104 38.1212 192.452 38.2861 192.094 38.5155C191.424 38.9693 190.595 39.2725 189.606 39.4252L189.535 39.4327C188.773 39.4657 188.05 39.1836 187.364 38.5864C186.679 37.9892 186.22 37.2724 185.988 36.4358C185.756 35.5992 185.805 34.7088 186.135 33.7647C186.466 32.8206 187.242 32.0205 188.465 31.3646C189.933 30.7782 191.008 30.3054 191.687 29.9463C192.999 29.233 194.092 28.7104 194.966 28.3785C195.887 28.0416 196.392 27.8445 196.482 27.7871C196.614 27.6774 196.701 27.5964 196.743 27.5441C196.875 27.4344 197.225 27.3495 197.793 27.2892C197.931 25.887 198.067 24.4612 198.2 23.0116C198.334 21.5621 198.536 20.0814 198.806 18.5695C199.391 15.0626 200.381 11.9911 201.776 9.35518Z" fill="var(--fill-0, #181057)"/>
<path id="Vector_5" d="M180.107 34.5472L180.399 34.5881C180.493 34.578 180.543 34.5967 180.548 34.644C181.728 34.0404 182.783 34.2874 183.713 35.3849C184.319 36.1341 184.851 37.3216 185.311 38.9474C185.646 41.2085 185.743 44.3799 185.602 48.4618C185.377 56.7152 185.3 61.6276 185.371 63.199C185.641 64.845 184.744 66.0884 182.68 66.9293C180.895 67.6927 179.048 67.8648 177.137 67.4454C175.127 66.9887 174.215 66.0568 174.401 64.6495C174.097 65.3994 173.771 65.9363 173.423 66.2603C173.08 66.6317 172.368 67.1378 171.287 67.7787C170.259 68.4618 168.746 69.0769 166.746 69.6239C164.752 70.2181 162.728 70.5285 160.673 70.555C158.624 70.6289 156.702 70.3303 154.908 69.6592C153.167 69.0305 151.92 67.871 151.166 66.1806C149.717 62.8894 149.4 58.5451 150.215 53.1477C150.795 49.5935 152.174 46.3611 154.354 43.4506C156.871 40.1214 159.823 37.2726 163.208 34.9041C165.749 33.1513 168.259 32 170.736 31.4502C171.578 31.2653 172.314 31.2112 172.944 31.2879C173.621 31.3596 174.322 31.4287 175.047 31.4954C175.819 31.5571 176.551 31.6947 177.244 31.9084C179.022 32.4374 179.977 33.3171 180.107 34.5472ZM168.972 54.7469C169.233 54.0494 169.406 53.1938 169.49 52.1801C169.621 51.1615 169.813 50.0406 170.066 48.8176C166.399 50.7854 163.669 53.0127 161.875 55.4996C159.918 58.243 160.243 59.9549 162.851 60.6353C165.087 60.9722 166.635 60.4493 167.493 59.0664C167.858 58.4535 168.162 57.7037 168.403 56.8169C168.643 55.9301 168.953 55.0122 169.331 54.063C169.214 54.3146 169.094 54.5426 168.972 54.7469Z" fill="var(--fill-0, #181057)"/>
<path id="Vector_6" d="M125.863 14.7505C126.768 13.3626 127.947 12.5199 129.398 12.2224C130.85 11.9249 132.295 12.011 133.732 12.4806C135.164 12.9028 136.419 13.6788 137.495 14.8086C138.614 15.8861 139.299 17.1532 139.549 18.6099L139.129 20.7358C139.714 21.2957 140.217 21.7448 140.635 22.0832C141.101 22.4165 141.401 22.9829 141.533 23.7822C141.887 24.4145 140.983 27.1658 138.82 32.0363C137.933 34.0442 136.984 36.1544 135.975 38.3666C135.008 40.5266 134.231 42.451 133.645 44.14C134.197 43.9378 134.752 43.7593 135.31 43.6045C135.868 43.4496 136.423 43.2711 136.976 43.069C140.382 41.7987 142.7 41.0983 143.93 40.9679C145.155 40.7901 146.185 40.8005 147.019 40.9991C149.286 41.6199 150.562 42.8243 150.847 44.6122C150.35 46.2438 148.097 48.6837 144.088 51.9318C143.159 52.6522 142.41 53.258 141.84 53.7491L136.133 58.8041C135.857 59.3596 135.673 59.8815 135.581 60.3697L135.589 60.4407C135.708 60.6672 136.335 60.9357 137.468 61.2461C138.649 61.5515 139.659 61.8272 140.498 62.0731C142.481 62.724 144.284 63.7051 145.906 65.0162C146.434 65.4865 146.825 66.2346 147.077 67.2604C147.324 68.239 147.257 69.1792 146.874 70.081C146.538 70.9778 145.823 71.6757 144.727 72.1746C143.632 72.6735 142.03 72.676 139.92 72.1821C136.799 71.1734 132.96 68.5901 128.404 64.4322C128.107 66.1384 127.807 67.8209 127.504 69.4797C127.244 71.0862 126.941 72.7451 126.597 74.4563C126.058 76.1402 124.482 77.0728 121.87 77.2542C120.829 77.3646 119.86 77.252 118.963 76.9165C118.114 76.576 117.58 76.0584 117.363 75.3637C116.874 74.363 116.602 73.6024 116.547 73.0819C116.497 72.6088 116.555 72.0285 116.721 71.341C117.518 68.4814 117.973 66.2322 118.087 64.5934C118.195 62.9073 118.281 61.9173 118.346 61.6234C116.931 60.9122 116.007 59.6466 115.575 57.8264C115.1 56.0586 115.356 54.4048 116.341 52.8649C117.794 52.1366 118.837 51.5954 119.47 51.2412C119.563 49.4132 119.83 47.4231 120.272 45.2711C121.058 41.4078 121.614 38.0715 121.938 35.2621C122.309 32.4476 122.903 29.2507 123.72 25.6714C124.578 22.0397 125.293 18.3994 125.863 14.7505Z" fill="var(--fill-0, #181057)"/>
<path id="Vector_7" d="M112.298 37.29C114.169 37.3309 115.469 37.8628 116.2 38.8858C116.972 39.8565 117.353 40.9644 117.341 42.2096C117.325 43.4075 116.991 44.5434 116.339 45.6173C115.73 46.6388 114.978 47.2209 114.084 47.3636C113.858 48.3923 113.411 49.1335 112.741 49.5873C112.072 50.0411 111.319 50.3841 110.482 50.6164C109.645 50.8486 108.764 51.1096 107.838 51.3992C106.954 51.6364 106.145 52.1289 105.411 52.8766C104.677 53.6243 104.061 54.3595 103.563 55.0821C103.108 55.7524 102.748 56.4126 102.482 57.0628C102.024 58.1639 101.663 59.4941 101.398 61.0533C101.413 62.1042 102.013 63.0215 103.197 63.805C104.579 64.6631 106.023 64.9646 107.527 64.7094C109.026 64.4069 110.24 64.3499 111.169 64.5385C112.14 64.6747 112.888 64.9543 113.411 65.3772C114.567 66.3551 114.606 67.6189 113.526 69.1688C111.562 73.2048 107.826 75.8737 102.318 77.1755C100.687 77.5877 99.0361 77.8106 97.3651 77.8443C95.6991 77.9253 94.0252 77.4808 92.3434 76.5109C90.6617 75.5409 89.2684 74.1337 88.1637 72.2891C85.7049 68.0524 85.3211 62.8539 87.0122 56.6938C88.6489 50.9223 91.5329 46.3103 95.6643 42.8578C100.186 39.029 105.731 37.1731 112.298 37.29Z" fill="var(--fill-0, #181057)"/>
<path id="Vector_8" d="M78.8298 45.288L79.1212 45.3289C79.2158 45.3188 79.2657 45.3375 79.2707 45.3848C80.4507 44.7812 81.5055 45.0281 82.4353 46.1257C83.041 46.8748 83.5737 48.0624 84.0332 49.6882C84.3687 51.9493 84.4658 55.1207 84.3245 59.2026C84.0993 67.456 84.0222 72.3684 84.0932 73.9398C84.3634 75.5858 83.4666 76.8292 81.4027 77.6701C79.6177 78.4335 77.77 78.6055 75.8595 78.1861C73.8494 77.7295 72.9372 76.7975 73.1229 75.3903C72.8196 76.1402 72.4938 76.6771 72.1454 77.0011C71.802 77.3725 71.0901 77.8786 70.0098 78.5194C68.9818 79.2026 67.4681 79.8177 65.4688 80.3646C63.4744 80.9589 61.45 81.2693 59.3954 81.2958C57.3459 81.3696 55.4243 81.071 53.6307 80.4C51.8894 79.7713 50.6421 78.6118 49.8886 76.9214C48.4391 73.6302 48.122 69.2859 48.9371 63.8885C49.5171 60.3343 50.8967 57.1019 53.0761 54.1914C55.5937 50.8622 58.5451 48.0134 61.9302 45.6448C64.4716 43.8921 66.981 42.7408 69.4585 42.191C70.3001 42.0061 71.036 41.9519 71.6661 42.0287C72.3436 42.1003 73.0447 42.1695 73.7694 42.2362C74.5415 42.2979 75.2738 42.4355 75.9663 42.6491C77.7448 43.1782 78.6993 44.0578 78.8298 45.288ZM67.6948 65.4877C67.9557 64.7902 68.1281 63.9346 68.212 62.9209C68.3432 61.9022 68.5354 60.7814 68.7884 59.5584C65.1216 61.5262 62.3914 63.7535 60.5977 66.2403C58.6399 68.9838 58.965 70.6957 61.573 71.3761C63.8096 71.713 65.357 71.1901 66.2151 69.8072C66.5807 69.1943 66.884 68.4444 67.1249 67.5577C67.3657 66.6709 67.6751 65.7529 68.0529 64.8038C67.936 65.0554 67.8167 65.2834 67.6948 65.4877Z" fill="var(--fill-0, #181057)"/>
<path id="Vector_9" d="M23.8642 66.2606L21.3758 75.2803C21.0432 76.6553 20.7629 78.0726 20.5349 79.5321C20.3069 80.9917 20.0352 82.2645 19.7198 83.3506C19.4094 84.4839 18.8373 85.4058 18.0036 86.1163C17.2172 86.8217 16.2949 87.374 15.2368 87.7733C14.1837 88.2199 13.0632 88.4823 11.8754 88.5604C10.7348 88.6335 9.695 88.5285 8.7559 88.2453C6.62105 87.5148 5.74577 86.0287 6.13003 83.787C7.29288 73.9988 8.51451 66.1182 9.79489 60.1452C11.1226 54.1672 12.2259 49.4569 13.1048 46.0145C14.0311 42.5671 14.9845 38.9253 15.9652 35.0893C15.9617 33.7022 16.399 32.4118 17.2772 31.2182C18.1553 30.0246 19.2192 29.0027 20.4687 28.1525C21.7655 27.2973 23.1323 26.65 24.5689 26.2105C26.0005 25.7238 27.2966 25.5385 28.4572 25.6546C29.6178 25.7708 30.501 26.2034 31.1067 26.9526C31.7598 27.6967 31.9301 28.8509 31.6175 30.4151C30.3758 34.9486 29.4955 38.1519 28.9764 40.0251C28.4574 41.8983 27.9893 43.5747 27.572 45.0544L26.0816 49.9492C27.0802 49.8911 28.319 49.6162 29.7979 49.1245C32.4769 48.2184 34.4415 47.7947 35.6917 47.8535C35.6666 47.6169 35.7422 47.2022 35.9186 46.6094C36.6312 40.6966 37.5596 35.2394 38.7038 30.2377C39.4651 26.1379 42.2961 23.7324 47.1966 23.0214C49.1365 22.8156 50.6534 23.1332 51.7473 23.9741C52.9409 24.8523 53.2259 26.1857 52.6022 27.9743C49.5439 40.6429 47.4896 50.5974 46.4393 57.8379C45.2679 66.1916 44.5015 71.8231 44.1401 74.7321C43.8261 77.6362 43.4602 79.3735 43.0422 79.9442C42.6243 80.5148 42.1651 80.9223 41.6647 81.1668C41.2167 81.4535 40.7661 81.7166 40.3131 81.9561C39.86 82.1955 39.5317 82.7088 39.3281 83.4959L39.1152 83.5185C38.827 84.4103 38.0692 85.1605 36.8419 85.7691C35.6146 86.3777 34.3311 86.6813 32.9912 86.6799C31.7037 86.7207 30.5653 86.363 29.5761 85.6067C28.6391 84.8926 28.2932 83.6614 28.5384 81.9129C28.7255 79.1659 29.2001 76.1969 29.9622 73.0061C30.7193 69.768 31.3125 67.241 31.7419 65.4252C32.2187 63.6043 32.5896 61.9143 32.8549 60.3551C32.4965 60.5845 32.133 60.7666 31.7645 60.9013C31.4434 61.0311 31.0376 61.2655 30.5473 61.6046C30.0519 61.8963 29.5304 62.167 28.9827 62.4164C28.4823 62.6609 27.9819 62.9053 27.4816 63.1498C26.212 63.8107 25.1789 64.4466 24.3825 65.0574L23.8642 66.2606ZM31.3796 60.6551C31.4269 60.6501 31.6559 60.554 32.0667 60.3669C31.7929 60.4916 31.5638 60.5877 31.3796 60.6551Z" fill="var(--fill-0, #181057)"/>
</g>
</svg>
