<svg preserveAspectRatio="xMidYMid meet" width="100%" height="100%" overflow="visible" style="display: block;" viewBox="0 0 1263.17 1647.03" fill="none" xmlns="http://www.w3.org/2000/svg">
<path id="Rectangle 14" d="M910.304 65.9273L1025.93 123.041C1104.43 161.817 1143.69 181.204 1170.78 213.702C1172.12 215.311 1173.44 216.941 1174.73 218.591C1200.79 251.924 1211.48 294.377 1232.86 379.285C1253.37 460.745 1263.62 501.476 1263.16 542.953C1263.13 545.025 1263.09 547.096 1263.03 549.168C1261.76 590.627 1249.81 630.894 1225.92 711.427L1087.8 1176.98C1031.06 1368.21 1002.69 1463.83 937.197 1528.74C918.409 1547.36 897.625 1563.85 875.223 1577.92C797.135 1626.95 697.572 1632.85 498.445 1644.66C454.611 1647.26 432.694 1648.56 411.644 1644.11C405.517 1642.82 399.471 1641.16 393.537 1639.16C373.153 1632.28 354.944 1620.02 318.525 1595.48L0 1380.92L600.912 0L910.304 65.9273Z" fill="var(--fill-0, #F5F5F5)"/>
</svg>
