<svg preserveAspectRatio="xMidYMid meet" width="100%" height="100%" overflow="visible" style="display: block;" viewBox="0 0 1674.21 2054.95" fill="none" xmlns="http://www.w3.org/2000/svg">
<path id="Rectangle 12" d="M163.999 787.448C209.749 613.388 232.624 526.358 284.151 455.188C335.678 384.018 411.216 335.117 562.294 237.314L750.895 115.221C874.584 35.1488 936.429 -4.88716 1004.02 0.476347C1071.61 5.83985 1126.37 55.1285 1235.88 153.706L1674.21 548.27L1667.97 677.638C1662.08 799.572 1659.14 860.539 1639.46 917.429C1619.79 974.319 1584.44 1024.08 1513.74 1123.6L1039.68 1790.93C923.839 1954 865.919 2035.54 778.888 2052.05C691.856 2068.57 608.093 2013.92 440.565 1904.63L292.131 1807.8C128.86 1701.28 47.2248 1648.02 14.6982 1563.63C-17.8285 1479.23 6.94924 1384.96 56.5047 1196.42L163.999 787.448Z" fill="var(--fill-0, #155CF4)"/>
</svg>
