<svg preserveAspectRatio="xMidYMid meet" width="100%" overflow="visible" style="display: block;" viewBox="0 0 1021.04 809.712" fill="none" xmlns="http://www.w3.org/2000/svg">
<path id="Vector" d="M563.753 18.8213C469.776 3.0129 422.787 -4.89132 376.883 3.23915C375.199 3.53729 373.519 3.85142 371.841 4.18149C326.1 13.1824 285.139 37.5267 203.219 86.2154C83.6712 157.267 23.8973 192.794 5.75226 251.755C5.11091 253.839 4.51222 255.936 3.95658 258.045C-11.7635 317.698 20.2435 379.428 84.2574 502.888L91.3661 516.598C172.839 673.73 213.576 752.296 287.02 788.601C360.464 824.906 447.622 809.562 621.939 778.873L729.908 759.865C868.235 735.512 937.399 723.336 979.058 676.293C983.37 671.424 987.415 666.325 991.175 661.019C1027.5 609.746 1023.62 539.627 1015.85 399.387C1008.02 257.956 1004.11 187.24 963.57 137.05C959.352 131.828 954.874 126.821 950.152 122.049C904.777 76.1871 834.934 64.4384 695.248 40.941L563.753 18.8213Z" fill="var(--fill-0, #FFBB00)"/>
</svg>
