<svg preserveAspectRatio="xMidYMid meet" width="100%" height="100%" overflow="visible" style="display: block;" viewBox="0 0 422.736 110.401" fill="none" xmlns="http://www.w3.org/2000/svg">
<g id="Hackathon">
<path id="Vector" d="M375.703 25.9522C379.444 23.9625 382.067 23.6549 383.569 25.0294C384.356 25.7719 384.827 26.8724 384.981 28.3309L385.028 28.7684C386.92 26.0309 390.46 23.5316 395.648 21.2706C401.122 18.9203 405.736 17.9294 409.492 18.298C414.381 18.7825 417.396 21.6191 418.536 26.8077C419.473 31.192 419.049 36.9301 417.264 44.0218C416.633 45.8587 416.143 47.356 415.794 48.514C415.497 49.6074 415.219 50.6102 414.962 51.5224C414.377 53.2364 413.388 55.3176 411.996 57.766C411.248 59.6152 409.932 61.1117 408.048 62.2555C406.221 63.3931 404.352 64.1223 402.439 64.4432C400.591 64.8162 399.014 64.6884 397.708 64.0599C396.409 63.4898 395.938 62.3893 396.296 60.7585C397.254 56.9991 398.013 53.5854 398.573 50.5172C399.132 47.4491 399.768 44.8155 400.478 42.6162C401.038 39.5481 400.956 37.6689 400.234 36.9785C399.647 36.4508 398.752 36.6342 397.549 37.5288C396.515 38.3464 395.814 39.2467 395.446 40.2296C394.477 41.0994 392.815 44.3434 390.461 49.9616C389.799 51.5067 389.137 53.0518 388.475 54.5969C387.865 56.0775 387.275 57.4675 386.705 58.7669C386.193 60.0601 385.718 61.1429 385.279 62.0153C384.899 62.8816 384.517 63.453 384.134 63.7297C383.815 64.0585 383.512 64.2675 383.227 64.3568C383.006 64.4982 382.814 64.6366 382.651 64.7718C382.489 64.9071 382.383 65.3017 382.334 65.9558C382.243 67.3224 380.948 68.4627 378.45 69.3766C374.419 70.866 370.667 71.087 367.193 70.0395C366.035 69.6903 365.092 69.1414 364.363 68.3927C362.737 65.8514 364.073 56.4768 368.372 40.2691C369.89 34.5625 370.915 31.1501 371.445 30.0319C372.669 27.6603 373.469 26.307 373.846 25.972C374.282 25.6308 374.901 25.6242 375.703 25.9522Z" fill="var(--fill-0, white)"/>
<path id="Vector_2" d="M328.38 31.5018C329.512 30.4968 331.007 30.1317 332.865 30.4067C333.221 30.4279 333.574 30.4199 333.924 30.3828C334.93 27.6214 337.001 26.0153 340.139 25.5645C340.95 25.4196 342.072 25.1531 343.505 24.7651C344.939 24.377 346.696 24.2498 348.775 24.3832C350.912 24.5105 352.815 24.9282 354.483 25.6363C358.123 27.1381 360.478 29.6021 361.55 33.0282C363.494 38.0136 363.884 43.6358 362.719 49.8949C361.505 56.8082 358.807 62.5219 354.625 67.0361C352.723 69.1257 350.63 70.5276 348.346 71.2418C346.068 72.0143 343.999 72.5287 342.138 72.785C340.277 73.0414 338.556 73.2239 336.975 73.3326C335.458 73.4935 333.955 73.5054 332.466 73.3684C329.247 73.0607 326.493 71.8484 324.204 69.7313C321.534 67.3597 320.08 63.3842 319.842 57.8049C319.556 52.8796 320.258 47.82 321.949 42.626C323.692 37.3675 325.836 33.6595 328.38 31.5018ZM345.647 47.4578C344.238 48.0792 342.888 48.4288 341.599 48.5065C341.025 49.2163 340.516 49.9783 340.071 50.7924C339.679 51.5419 339.108 52.2809 338.359 53.0093C337.605 53.6793 337.221 53.9559 337.209 53.8393C336.365 55.3446 335.703 56.8897 335.222 58.4746C334.735 60.0011 334.893 61.4888 335.696 62.9376C338.054 62.9234 339.769 62.6826 340.84 62.215C341.911 61.7474 342.861 60.9682 343.689 59.8775C344.576 58.7805 345.211 57.5333 345.593 56.1358C346.378 53.5158 346.395 50.6232 345.647 47.4578Z" fill="var(--fill-0, white)"/>
<path id="Vector_3" d="M315.701 61.1643C316.029 64.2563 316.693 66.8997 317.692 69.0945C317.89 70.9614 317.592 72.3204 316.797 73.1716C316.009 74.0812 314.944 74.6071 313.602 74.7494C312.325 74.9439 310.926 74.8268 309.405 74.398C307.891 74.0277 306.566 73.4898 305.429 72.7844C304.351 72.0728 303.641 71.4991 303.3 71.0634C302.952 70.5692 302.405 69.8603 301.658 68.9366C300.178 64.433 299.392 61.478 299.302 60.0716C299.212 58.6653 299.202 57.457 299.272 56.4466C296.516 58.2728 294.642 59.7989 293.651 61.0249C291.826 63.2833 290.383 66.0911 289.323 69.4483C289.129 72.0647 288.892 73.4467 288.613 73.5944C288.34 73.8003 287.973 73.9572 287.512 74.065C287.052 74.1729 286.577 74.4297 286.09 74.8354C285.602 75.2411 285.137 75.5854 284.695 75.8682C284.253 76.1511 283.811 76.4339 283.369 76.7168C282.328 77.4761 281.633 77.8743 281.283 77.9114C278.069 79.3142 274.84 79.1847 271.596 77.5228C270.22 76.7839 269.111 75.7806 268.268 74.513C267.42 73.1871 267.087 71.718 267.27 70.1057C268.634 59.0469 270.91 47.6849 274.097 36.0196C276.057 28.9093 278.052 23.2407 280.081 19.0137C280.565 18.0184 281.044 16.9648 281.516 15.8528C282.518 13.6227 283.212 12.1036 283.599 11.2957C282.855 9.84077 282.715 8.52813 283.181 7.35781C283.699 6.12296 284.537 5.11971 285.694 4.34805C286.903 3.51186 288.312 2.89046 289.921 2.48387C291.529 2.07727 293.072 1.88415 294.549 1.9045C298.105 2.05833 300.118 3.23132 300.586 5.42347C300.348 6.51071 299.985 7.8176 299.498 9.34415C299.069 10.8645 298.614 12.4171 298.133 14.002C297.704 15.5224 297.266 16.9552 296.819 18.3006C296.43 19.6397 296.124 20.6456 295.9 21.3183C295.729 21.9264 295.461 23.0168 295.097 24.5893C294.785 26.0973 294.43 27.7573 294.032 29.5693C293.686 31.3169 293.358 32.9446 293.046 34.4526L292.32 37.6268C292.174 38.4683 291.927 39.7628 291.582 41.5103C291.23 43.1995 290.892 45.3002 290.569 47.8123C291.265 47.1485 291.807 46.4126 292.193 45.6047C292.631 44.7323 293.265 43.7507 294.093 42.6599C294.98 41.563 296.132 40.4673 297.55 39.373C299.02 38.2142 300.614 37.3962 302.333 36.9188C306.057 35.875 309.629 36.7351 313.049 39.4991C315.63 41.5852 316.731 45.0083 316.351 49.7682C316.205 51.7306 315.975 53.7313 315.66 55.7706C315.397 57.7453 315.411 59.5432 315.701 61.1643Z" fill="var(--fill-0, white)"/>
<path id="Vector_4" d="M248.798 11.5352L248.848 11.1759L249.552 10.3048C250.033 8.71987 250.637 7.74136 251.365 7.36923C251.761 7.20924 252.27 7.00771 252.894 6.76463C253.517 6.52156 254.316 5.9943 255.292 5.18286C255.614 4.3228 256.423 3.88305 257.719 3.86361C259.008 3.78584 260.306 4.0612 261.611 4.68968C262.969 5.25364 264.095 6.13714 264.99 7.34018C265.943 8.53703 266.289 9.85719 266.029 11.3006C265.763 12.6858 265.521 13.7438 265.304 14.4748C265.139 15.1413 264.941 15.7817 264.711 16.3961C264.54 17.0042 264.29 17.7091 263.962 18.5109C263.686 19.248 263.322 20.2601 262.868 21.5471L260.621 27.8915C260.409 28.6809 260.193 29.1463 259.972 29.2877C259.81 29.4229 259.656 29.6457 259.512 29.956C260.025 29.7836 260.453 29.6497 260.797 29.5542C261.141 29.4588 261.485 29.3633 261.829 29.2678C262.633 29.0645 263.554 28.8489 264.592 28.6208C265.246 28.6694 265.806 28.669 266.273 28.6195L267.498 28.4896C268.198 28.4153 269.066 28.5298 270.101 28.833C271.13 29.0779 271.84 29.6516 272.23 30.554C272.621 31.4565 272.752 32.4161 272.624 33.4326C272.49 34.3908 272.116 35.3153 271.502 36.2063C270.889 37.0973 270.031 37.6308 268.929 37.8067C264.002 39.7451 260.465 40.8871 258.319 41.2327L257.859 41.9009L257.868 41.9885C257.433 43.4505 256.98 45.2979 256.509 47.5307C256.09 49.699 255.605 52.0807 255.054 54.6759C254.556 57.2066 254.04 59.8571 253.508 62.6273C252.97 65.3392 252.393 67.9667 251.778 70.5098C249.85 79.0326 248.281 83.7121 247.072 84.5483C246.63 84.8312 246.15 85.0296 245.631 85.1436C245.177 85.3098 244.923 85.4252 244.871 85.4897C242.817 85.5896 241.082 85.3606 239.666 84.8028C238.25 84.2451 237.274 83.6701 236.739 83.0778C236.205 82.4856 236.011 81.7687 236.157 80.9272C236.189 70.6586 237.228 59.3098 239.272 46.8809C238.105 47.0046 237.301 47.2079 236.859 47.4907C236.034 48.0503 235.011 48.4242 233.792 48.6124L233.705 48.6217C232.765 48.6624 231.873 48.3145 231.028 47.5782C230.183 46.8419 229.617 45.9579 229.331 44.9264C229.044 43.8948 229.105 42.797 229.512 41.6329C229.92 40.4687 230.877 39.4823 232.384 38.6735C234.195 37.9504 235.52 37.3675 236.358 36.9247C237.976 36.0452 239.323 35.4008 240.401 34.9915C241.537 34.5761 242.16 34.333 242.27 34.2623C242.433 34.1271 242.54 34.0272 242.592 33.9627C242.755 33.8274 243.186 33.7227 243.887 33.6484C244.057 31.9195 244.225 30.1613 244.389 28.374C244.554 26.5867 244.802 24.761 245.136 22.8968C245.857 18.5726 247.078 14.7854 248.798 11.5352Z" fill="var(--fill-0, white)"/>
<path id="Vector_5" d="M222.081 42.598L222.44 42.6483C222.557 42.636 222.618 42.6589 222.625 42.7173C224.08 41.973 225.38 42.2776 226.527 43.6309C227.274 44.5546 227.93 46.0188 228.497 48.0236C228.911 50.8115 229.03 54.722 228.856 59.7551C228.579 69.9318 228.483 75.989 228.571 77.9265C228.904 79.956 227.798 81.4892 225.254 82.526C223.053 83.4674 220.774 83.6795 218.419 83.1624C215.94 82.5993 214.815 81.4502 215.044 79.715C214.67 80.6396 214.269 81.3017 213.839 81.7012C213.416 82.1591 212.538 82.7831 211.206 83.5734C209.938 84.4157 208.072 85.1741 205.606 85.8486C203.147 86.5813 200.651 86.964 198.118 86.9967C195.591 87.0877 193.221 86.7196 191.01 85.8922C188.863 85.117 187.324 83.6872 186.395 81.6029C184.608 77.5447 184.217 72.1881 185.222 65.533C185.937 61.1505 187.639 57.1648 190.326 53.5761C193.43 49.4711 197.069 45.9584 201.243 43.038C204.377 40.8768 207.471 39.4572 210.526 38.7793C211.564 38.5512 212.471 38.4845 213.248 38.5791C214.083 38.6675 214.948 38.7528 215.841 38.835C216.793 38.911 217.696 39.0808 218.55 39.3442C220.743 39.9965 221.92 41.0811 222.081 42.598ZM208.351 67.5048C208.673 66.6447 208.886 65.5898 208.989 64.3399C209.151 63.0838 209.388 61.7018 209.7 60.1938C205.178 62.6202 201.812 65.3665 199.6 68.4329C197.186 71.8156 197.587 73.9265 200.803 74.7653C203.561 75.1808 205.469 74.536 206.527 72.8309C206.977 72.0752 207.351 71.1506 207.648 70.0571C207.945 68.9637 208.327 67.8319 208.793 66.6615C208.649 66.9718 208.501 67.2529 208.351 67.5048Z" fill="var(--fill-0, white)"/>
<path id="Vector_6" d="M155.194 18.1877C156.311 16.4765 157.764 15.4374 159.554 15.0706C161.344 14.7038 163.125 14.8099 164.897 15.3889C166.663 15.9095 168.21 16.8664 169.538 18.2595C170.918 19.588 171.762 21.1504 172.07 22.9465L171.552 25.5678C172.274 26.2582 172.893 26.812 173.409 27.2292C173.984 27.6402 174.353 28.3385 174.516 29.3241C174.953 30.1037 173.838 33.4963 171.171 39.5017C170.077 41.9776 168.907 44.5794 167.663 47.3072C166.47 49.9705 165.512 52.3434 164.789 54.4259C165.471 54.1766 166.155 53.9566 166.843 53.7656C167.531 53.5747 168.215 53.3546 168.897 53.1054C173.097 51.5391 175.955 50.6755 177.472 50.5146C178.982 50.2954 180.252 50.3083 181.281 50.5531C184.076 51.3186 185.649 52.8036 186.001 55.0082C185.388 57.02 182.61 60.0284 177.666 64.0335C176.522 64.9218 175.598 65.6687 174.895 66.2742L167.857 72.5072C167.517 73.1922 167.29 73.8357 167.177 74.4377L167.186 74.5252C167.334 74.8045 168.107 75.1356 169.504 75.5183C170.96 75.8949 172.205 76.2348 173.24 76.538C175.685 77.3406 177.908 78.5503 179.908 80.167C180.56 80.7469 181.041 81.6693 181.352 82.9342C181.657 84.1407 181.574 85.3 181.102 86.412C180.688 87.5178 179.806 88.3783 178.455 88.9935C177.104 89.6087 175.128 89.6118 172.527 89.0027C168.678 87.759 163.945 84.5737 158.328 79.4468C157.961 81.5506 157.591 83.6252 157.218 85.6706C156.897 87.6515 156.524 89.6969 156.099 91.8068C155.434 93.8832 153.491 95.0332 150.27 95.2568C148.987 95.3929 147.792 95.2541 146.687 94.8404C145.639 94.4205 144.981 93.7823 144.714 92.9258C144.111 91.6918 143.775 90.754 143.707 90.1122C143.645 89.5288 143.717 88.8133 143.922 87.9656C144.905 84.4396 145.466 81.6663 145.606 79.6456C145.74 77.5666 145.846 76.3459 145.926 75.9835C144.181 75.1066 143.042 73.546 142.509 71.3017C141.924 69.1219 142.238 67.0827 143.453 65.184C145.246 64.286 146.532 63.6186 147.311 63.182C147.426 60.928 147.756 58.4742 148.3 55.8206C149.27 51.0571 149.955 46.9433 150.354 43.4792C150.812 40.0089 151.545 36.067 152.552 31.6535C153.611 27.1755 154.491 22.6869 155.194 18.1877Z" fill="var(--fill-0, white)"/>
<path id="Vector_7" d="M138.468 45.9786C140.774 46.029 142.378 46.6849 143.279 47.9463C144.231 49.1432 144.701 50.5093 144.687 52.0447C144.666 53.5217 144.254 54.9223 143.451 56.2464C142.7 57.506 141.773 58.2238 140.67 58.3997C140.392 59.6681 139.84 60.5821 139.014 61.1416C138.189 61.7011 137.26 62.1241 136.229 62.4104C135.197 62.6968 134.11 63.0186 132.968 63.3757C131.878 63.6683 130.881 64.2755 129.976 65.1974C129.071 66.1194 128.311 67.0258 127.698 67.9168C127.136 68.7433 126.692 69.5574 126.364 70.3591C125.8 71.7168 125.354 73.357 125.027 75.2795C125.047 76.5754 125.786 77.7063 127.246 78.6725C128.951 79.7306 130.73 80.1023 132.585 79.7876C134.433 79.4146 135.93 79.3444 137.076 79.5768C138.273 79.7448 139.195 80.0895 139.84 80.6111C141.266 81.8168 141.313 83.3751 139.982 85.2862C137.56 90.2627 132.953 93.5535 126.162 95.1587C124.151 95.6669 122.116 95.9418 120.055 95.9833C118.001 96.0832 115.937 95.5352 113.863 94.3392C111.789 93.1432 110.072 91.408 108.709 89.1337C105.678 83.9096 105.204 77.4998 107.29 69.9042C109.308 62.7876 112.864 57.1009 117.958 52.8439C123.534 48.1229 130.371 45.8345 138.468 45.9786Z" fill="var(--fill-0, white)"/>
<path id="Vector_8" d="M97.2026 55.8415L97.5619 55.8919C97.6786 55.8795 97.74 55.9025 97.7462 55.9609C99.2011 55.2166 100.502 55.5211 101.648 56.8744C102.395 57.7981 103.052 59.2624 103.619 61.2671C104.032 64.0551 104.152 67.9656 103.978 72.9987C103.7 83.1754 103.605 89.2325 103.693 91.1701C104.026 93.1996 102.92 94.7328 100.375 95.7696C98.1741 96.711 95.8958 96.9231 93.5401 96.406C91.0615 95.8429 89.9368 94.6938 90.1657 92.9586C89.7918 93.8832 89.39 94.5453 88.9605 94.9448C88.537 95.4027 87.6593 96.0267 86.3272 96.8169C85.0596 97.6593 83.1932 98.4177 80.7279 99.0921C78.2688 99.8249 75.7726 100.208 73.2392 100.24C70.7121 100.331 68.3427 99.9631 66.1311 99.1358C63.9841 98.3605 62.446 96.9308 61.517 94.8464C59.7298 90.7883 59.3387 85.4317 60.3438 78.7766C61.0589 74.394 62.7601 70.4084 65.4472 66.8197C68.5517 62.7147 72.1908 59.202 76.3648 56.2815C79.4983 54.1204 82.5925 52.7008 85.6474 52.0228C86.6852 51.7948 87.5925 51.7281 88.3695 51.8227C89.2048 51.9111 90.0693 51.9964 90.9629 52.0786C91.9149 52.1546 92.8179 52.3243 93.6717 52.5877C95.8648 53.2401 97.0417 54.3247 97.2026 55.8415ZM83.4727 80.7484C83.7944 79.8883 84.007 78.8333 84.1105 77.5835C84.2722 76.3274 84.5092 74.9454 84.8212 73.4374C80.2999 75.8637 76.9334 78.6101 74.7218 81.6764C72.3077 85.0592 72.7086 87.17 75.9243 88.0089C78.6822 88.4244 80.5901 87.7796 81.6482 86.0745C82.099 85.3187 82.4729 84.3941 82.7699 83.3007C83.067 82.2073 83.4484 81.0754 83.9142 79.9051C83.7701 80.2154 83.623 80.4965 83.4727 80.7484Z" fill="var(--fill-0, white)"/>
<path id="Vector_9" d="M29.4254 81.7015L26.3572 92.8231C25.9471 94.5185 25.6014 96.266 25.3203 98.0657C25.0392 99.8654 24.7042 101.435 24.3153 102.774C23.9325 104.171 23.2271 105.308 22.1991 106.184C21.2294 107.054 20.0922 107.735 18.7875 108.227C17.489 108.778 16.1075 109.101 14.6428 109.198C13.2364 109.288 11.9543 109.158 10.7964 108.809C8.16402 107.909 7.08475 106.076 7.55856 103.312C8.99241 91.2429 10.4987 81.5259 12.0775 74.161C13.7146 66.7899 15.075 60.982 16.1587 56.7374C17.3008 52.4866 18.4765 47.9962 19.6858 43.2663C19.6813 41.5559 20.2206 39.9649 21.3034 38.4931C22.3862 37.0214 23.698 35.7614 25.2387 34.713C26.8377 33.6585 28.5229 32.8603 30.2943 32.3185C32.0596 31.7183 33.6577 31.4898 35.0888 31.6331C36.5199 31.7763 37.6089 32.3097 38.3558 33.2334C39.161 34.151 39.371 35.5741 38.9856 37.5028C37.4545 43.0928 36.369 47.0426 35.729 49.3523C35.0891 51.662 34.5118 53.7291 33.9974 55.5535L32.1596 61.589C33.3909 61.5174 34.9184 61.1785 36.7419 60.5721C40.0452 59.4548 42.4676 58.9324 44.0092 59.0049C43.9783 58.7132 44.0715 58.2019 44.289 57.4709C45.1677 50.1802 46.3124 43.4513 47.7232 37.2841C48.662 32.2289 52.1527 29.2629 58.1952 28.3861C60.5871 28.1325 62.4575 28.5241 63.8064 29.5609C65.2782 30.6438 65.6295 32.2879 64.8605 34.4933C61.0895 50.1141 58.5565 62.3883 57.2614 71.316C55.817 81.6164 54.872 88.5602 54.4265 92.1472C54.0393 95.728 53.588 97.8702 53.0727 98.5738C52.5573 99.2774 51.9912 99.7799 51.3742 100.081C50.8217 100.435 50.2662 100.759 49.7075 101.054C49.1489 101.35 48.744 101.983 48.493 102.953L48.2305 102.981C47.8751 104.081 46.9408 105.006 45.4275 105.756C43.9142 106.507 42.3315 106.881 40.6794 106.879C39.0919 106.929 37.6882 106.488 36.4684 105.556C35.3131 104.675 34.8866 103.157 35.1889 101.001C35.4197 97.6141 36.0049 93.9533 36.9445 90.0189C37.878 86.0262 38.6095 82.9104 39.139 80.6714C39.7268 78.4262 40.1843 76.3423 40.5113 74.4198C40.0694 74.7026 39.6212 74.9272 39.1669 75.0933C38.7709 75.2533 38.2706 75.5424 37.6659 75.9605C37.0551 76.3202 36.4121 76.6539 35.7368 76.9615C35.1198 77.2629 34.5028 77.5643 33.8858 77.8657C32.3203 78.6807 31.0466 79.4647 30.0645 80.2178L29.4254 81.7015ZM38.6922 74.7897C38.7505 74.7835 39.033 74.6651 39.5394 74.4344C39.2018 74.5882 38.9194 74.7066 38.6922 74.7897Z" fill="var(--fill-0, white)"/>
</g>
</svg>
