<svg preserveAspectRatio="xMidYMid meet" width="100%" height="100%" overflow="visible" style="display: block;" viewBox="0 0 85 40" fill="none" xmlns="http://www.w3.org/2000/svg">
<g id="Frame" clip-path="url(#clip0_0_29)">
<path id="Vector" fill-rule="evenodd" clip-rule="evenodd" d="M13.8125 24.4194C13.7869 24.585 13.7244 24.7427 13.6297 24.8805C13.5351 25.0183 13.4108 25.1328 13.2661 25.2153C12.9746 25.4051 12.7196 25.5 12.4616 25.5949C11.9121 25.7862 11.3338 25.9775 10.7221 26.1995C10.0771 26.4214 9.49875 26.6434 8.98268 26.8041C8.33911 27.026 7.72741 27.2173 7.14607 27.4393C6.7087 27.628 6.29787 27.874 5.9242 28.1709C5.57666 28.4884 5.27337 28.8519 5.02259 29.2515C4.76455 29.6954 4.60214 30.2678 4.60214 30.9352C4.60214 32.2714 4.92393 33.2877 5.56902 33.9229C6.21259 34.5918 7.40562 34.9087 9.17393 34.9087C10.9771 34.9087 12.2005 34.5597 12.8471 33.8602C13.4892 33.1607 13.811 32.1765 13.811 30.9061V24.4194H13.8125ZM9.17545 10.3377C12.3326 10.3377 14.6504 10.9423 16.1303 12.1821C17.6117 13.3913 18.3524 14.9464 18.3524 16.7893V32.4934C18.3524 33.1286 18.2249 33.828 18.0003 34.5903C17.7726 35.3556 17.3233 36.0536 16.6145 36.6872C15.939 37.3255 15.0055 37.8658 13.814 38.2791C12.6225 38.6923 11.0773 38.9143 9.17696 38.9143C7.27964 38.9143 5.73143 38.6923 4.54143 38.2791C3.35143 37.8658 2.41643 37.3255 1.74098 36.6872C1.11264 36.1162 0.636635 35.3952 0.356696 34.5903C0.129018 33.8296 0 33.1301 0 32.4949V29.9847C0 28.6485 0.353661 27.4087 1.0625 26.3265C1.77134 25.2153 2.76857 24.453 4.05723 23.9755C4.7008 23.7536 5.44152 23.5316 6.27786 23.2454C7.11571 22.9576 7.88679 22.6714 8.66089 22.4189C9.435 22.1633 10.1104 21.9076 10.6887 21.6842C11.0377 21.5434 11.3922 21.4167 11.7512 21.3046L12.3311 21.0184C12.5587 20.8913 12.7819 20.7 13.008 20.4459C13.2327 20.1934 13.4254 19.9071 13.5879 19.5888C13.7595 19.244 13.8479 18.8633 13.8459 18.4775V17.4597C13.8483 17.0866 13.7706 16.7175 13.6182 16.3775C13.4907 15.9949 13.2327 15.6459 12.879 15.3291C12.5254 15.0107 12.0412 14.7566 11.4629 14.5638C10.883 14.3755 10.112 14.2791 9.24071 14.2791C7.4375 14.2791 6.24598 14.6311 5.60241 15.3597C5.05598 15.9964 4.7342 16.7908 4.67045 17.6801C4.67045 17.8714 4.50955 17.9985 4.31527 17.9985L0.388571 18.0627C0.295296 18.0632 0.205636 18.0264 0.139113 17.9605C0.0725909 17.8945 0.0345929 17.8048 0.0333929 17.7107V16.7923C0.0333929 15.9 0.195804 15.0735 0.549464 14.2791C0.904643 13.4831 1.45259 12.8173 2.19179 12.2434C2.9325 11.6724 3.89937 11.1964 5.0575 10.878C6.18527 10.4954 7.56955 10.3377 9.17848 10.3377H9.17545ZM80.3629 24.4194C80.3373 24.585 80.2748 24.7427 80.1802 24.8805C80.0856 25.0183 79.9612 25.1328 79.8165 25.2153C79.5281 25.4051 79.2701 25.5 79.0121 25.5949C78.4656 25.7862 77.8843 25.9775 77.2726 26.1995C76.6275 26.4214 76.0477 26.6434 75.5331 26.8041C74.888 27.026 74.2763 27.2173 73.6965 27.4393C73.2586 27.6279 72.8473 27.8739 72.4731 28.1709C72.1261 28.4885 71.8233 28.852 71.573 29.2515C71.315 29.6954 71.1541 30.2678 71.1541 30.9352C71.1541 32.2714 71.4729 33.2877 72.1179 33.9229C72.7615 34.5918 73.9546 34.9087 75.7244 34.9087C77.5306 34.9087 78.7525 34.5597 79.3976 33.8602C80.0396 33.1607 80.3614 32.1765 80.3614 30.9061L80.3629 24.4194ZM75.7274 10.3377C78.8845 10.3377 81.2023 10.9423 82.6837 12.1821C84.1637 13.3913 84.9044 14.9464 84.9044 16.7893V32.4934C84.9044 33.1286 84.7769 33.828 84.5507 34.5903C84.3261 35.3556 83.8753 36.0536 83.1664 36.6872C82.491 37.3255 81.5575 37.8658 80.366 38.2791C79.176 38.6923 77.6293 38.9143 75.7304 38.9143C73.8331 38.9143 72.2849 38.6923 71.0949 38.2791C69.9049 37.8658 68.9699 37.3255 68.2945 36.6872C67.6672 36.1159 67.1922 35.3949 66.9132 34.5903C66.6855 33.828 66.5565 33.1286 66.5565 32.4934V29.9832C66.5565 28.6469 66.9117 27.4071 67.619 26.325C68.3279 25.2138 69.3266 24.4515 70.6137 23.974C71.2573 23.752 71.998 23.5301 72.8359 23.2439C73.6707 22.9561 74.4448 22.6699 75.2189 22.4173C75.993 22.1617 76.667 21.9061 77.2468 21.6826C77.5958 21.5418 77.9502 21.4152 78.3093 21.303L78.8891 21.0168C79.1137 20.8898 79.3399 20.6985 79.5645 20.4444C79.7949 20.1861 79.9899 19.8978 80.1444 19.5872C80.316 19.2425 80.4044 18.8617 80.4024 18.476V17.4581C80.4048 17.0851 80.3271 16.7159 80.1747 16.376C80.0472 15.9934 79.7907 15.6444 79.4355 15.3275C79.0819 15.0092 78.6007 14.7551 78.0194 14.5622C77.4396 14.374 76.6685 14.2775 75.7972 14.2775C73.994 14.2775 72.804 14.6296 72.1589 15.3581C71.6125 15.9949 71.2907 16.7893 71.2254 17.6786C71.2254 17.8699 71.0661 17.9969 70.8733 17.9969H66.9679C66.8756 17.9965 66.7872 17.9598 66.7214 17.8947C66.6556 17.8295 66.6177 17.7409 66.6157 17.6479V16.725C66.6157 15.8372 66.7766 15.0107 67.1318 14.2148C67.4854 13.4219 68.0319 12.753 68.7711 12.1821C69.5148 11.6097 70.4787 11.1321 71.6398 10.8153C72.7327 10.4939 74.117 10.3377 75.7274 10.3377ZM61.9149 10.4648H64.4922C64.7169 10.4648 64.8778 10.6883 64.814 10.9087L63.9443 14.2148C63.9139 14.3755 63.7515 14.4704 63.6225 14.4704H61.8193C60.8539 14.4704 60.0813 14.5974 59.4696 14.853C58.8883 15.1056 58.4071 15.3918 58.0838 15.7408C57.762 16.0928 57.5678 16.4403 57.4721 16.7908C57.3855 17.1334 57.3421 17.4857 57.3431 17.8393V38.2791C57.3411 38.3729 57.3026 38.4621 57.2358 38.5274C57.169 38.5927 57.0794 38.6289 56.9864 38.6281H53.125C53.0325 38.6281 52.9437 38.5916 52.8776 38.5263C52.8115 38.4611 52.7733 38.3723 52.7713 38.2791V16.9163C52.7713 16.5367 52.8351 15.9643 52.996 15.2326C53.125 14.5025 53.5121 13.803 54.1237 13.0714C54.7354 12.3719 55.637 11.7367 56.8604 11.2286C58.0854 10.7173 59.7596 10.4648 61.9149 10.4648ZM48.9069 31.7939V32.7474C48.9069 33.1607 48.8462 33.7332 48.6837 34.4648C48.5547 35.1627 48.1677 35.8944 47.556 36.5923C46.9443 37.2934 46.0427 37.9286 44.8193 38.4367C43.5959 38.9464 41.9202 39.202 39.7648 39.202C37.6095 39.202 35.9337 38.9464 34.7104 38.4367C33.487 37.9286 32.5854 37.3255 31.9737 36.5939C31.362 35.8959 30.9749 35.1643 30.8459 34.4357C30.7184 33.701 30.6228 33.1622 30.6228 32.749V11.3556C30.6228 11.1643 30.7837 11.0036 30.9764 11.0036H34.8075C35.0018 11.0036 35.1627 11.1643 35.1627 11.3556V31.3806C35.1627 32.0479 35.2583 32.5255 35.3554 32.9066C35.4541 33.2893 35.6469 33.6689 35.9368 33.9872C36.2252 34.3362 36.6775 34.6224 37.2877 34.8444C37.8675 35.0678 38.6735 35.1964 39.6707 35.1964C40.7029 35.1964 41.5377 35.0678 42.1509 34.8444C42.7626 34.6224 43.2134 34.3362 43.5352 34.0178C43.8539 33.701 44.0816 33.352 44.1772 32.9694C44.2744 32.5867 44.4049 32.2714 44.4049 31.3469V11.325C44.4049 11.1352 44.5643 10.976 44.7571 10.976H48.5881C48.7794 10.976 48.9403 11.1352 48.9403 11.328V31.7969H48.9099L48.9069 31.7939ZM22.5402 0.263249H26.3728C26.5655 0.263249 26.7264 0.420902 26.7264 0.610698V38.4689C26.7252 38.5627 26.6874 38.6522 26.6212 38.7181C26.5551 38.784 26.4658 38.8209 26.3728 38.8209H22.5402C22.4472 38.8209 22.3579 38.784 22.2917 38.7181C22.2255 38.6522 22.1877 38.5627 22.1865 38.4689V0.610698C22.2169 0.420902 22.3474 0.263249 22.5402 0.263249Z" fill="var(--fill-0, #241F21)"/>
</g>
<defs>
<clipPath id="clip0_0_29">
<rect width="85" height="40" fill="white"/>
</clipPath>
</defs>
</svg>
