<svg preserveAspectRatio="xMidYMid meet" width="100%" height="100%" overflow="visible" style="display: block;" viewBox="0 0 155 34" fill="none" xmlns="http://www.w3.org/2000/svg">
<g id="Frame" clip-path="url(#clip0_0_18)">
<path id="Vector" d="M146.752 20.0747H144.82C144.507 20.0747 144.299 19.7087 144.455 19.4474L149.31 9.93279L144.403 0.627334C144.246 0.313667 144.455 0 144.768 0H146.7C148.474 0 149.675 0.73189 150.459 2.14339L155 9.98508L150.511 17.8267C149.727 19.186 148.579 20.0747 146.752 20.0747Z" fill="var(--fill-0, #A9BE00)"/>
<path id="Vector_2" d="M113.604 9.93262C112.352 9.93262 111.568 9.9849 110.942 10.0895C109.428 10.2986 108.28 13.0693 108.907 13.6966C109.115 13.8011 109.428 13.8011 109.898 13.6966C110.629 13.5398 111.986 13.3307 113.866 13.3307C116.528 13.3307 118.303 13.8534 118.303 16.2583V18.1403H114.127C109.428 18.1403 106.453 19.6563 106.453 23.9954C106.453 28.1253 109.22 29.9551 114.075 29.9551C119.66 29.9551 122.061 28.0208 122.061 23.7339V16.3106C122.113 11.4487 118.668 9.93262 113.604 9.93262ZM118.25 23.6294C118.25 26.2433 116.423 26.6615 114.022 26.6615C112.09 26.6615 110.315 26.2956 110.315 23.9954C110.315 22.0089 111.568 21.2246 114.127 21.2246H118.25V23.6294Z" fill="var(--fill-0, #293189)"/>
<path id="Vector_3" d="M24.4922 9.88086C23.2394 9.88086 22.4563 9.93313 21.8298 10.0377C20.3159 10.2468 19.1675 13.0176 19.7939 13.6449C20.0027 13.7494 20.3159 13.7494 20.7858 13.6449C21.5166 13.488 22.874 13.2789 24.7533 13.2789C27.4156 13.2789 29.1905 13.8017 29.1905 16.2587V18.1407H25.0665C20.3682 18.1407 17.3926 19.6568 17.3926 23.9958C17.3926 28.1259 20.1593 30.0079 25.0142 30.0079C30.6 30.0079 33.0014 28.0736 33.0014 23.7867V16.2587C33.0014 11.3969 29.5559 9.88086 24.4922 9.88086ZM29.1383 23.6299C29.1383 26.2961 27.3112 26.6621 24.9099 26.6621C22.9783 26.6621 21.2035 26.2961 21.2035 23.9958C21.2035 22.0093 22.4563 21.2252 25.0142 21.2252H29.1383V23.6299Z" fill="var(--fill-0, #293189)"/>
<path id="Vector_4" d="M23.1349 4.33887C22.0908 4.33887 21.2033 5.07076 20.9424 6.01176C20.8379 6.37771 20.8379 7.21415 20.8379 7.21415C20.8379 7.47555 21.0467 7.73693 21.36 7.73693H29.0338C30.0779 7.73693 30.9653 7.00504 31.2264 6.06404C31.383 5.59354 31.3308 4.86165 31.3308 4.86165C31.3308 4.60026 31.1219 4.33887 30.8087 4.33887H23.1349Z" fill="var(--fill-0, #293189)"/>
<path id="Vector_5" d="M65.9414 22.4792C65.9414 27.2364 68.4993 30.0072 74.1895 30.0072H74.2418C79.9319 30.0072 82.4898 27.2364 82.4898 22.4792V13.0169C82.4898 11.5008 81.2892 10.2984 79.7753 10.2984H79.1488C78.8356 10.2984 78.5745 10.5598 78.5745 10.8735V22.4792C78.5745 24.9362 77.7916 26.2955 74.2418 26.2955C70.6919 26.2955 69.9089 24.9362 69.9089 22.4792V13.0169C69.9089 11.8145 69.0736 10.769 67.9773 10.403C67.5075 10.2461 66.62 10.2984 66.62 10.2984C66.3068 10.2984 66.0458 10.5598 66.0458 10.8735L65.9414 22.4792Z" fill="var(--fill-0, #293189)"/>
<path id="Vector_6" d="M61.398 10.2986C61.398 10.2986 60.6672 10.194 59.9363 10.4032C58.7356 10.7168 57.9004 11.7624 57.8482 12.9648V23.3681C57.8482 28.4913 56.0733 30.3211 54.8204 31.4189C54.455 31.7325 53.933 32.2031 53.933 32.2031C53.7764 32.4122 53.8807 32.7258 54.1418 32.9349L54.6638 33.3531C54.8726 33.51 55.0814 33.6668 55.3425 33.7713C56.4909 34.2419 57.8482 33.9804 58.6835 33.0395C58.6835 33.0395 59.4665 32.2554 59.7275 31.7848C61.0326 29.9028 62.0245 27.3935 62.0245 23.159V13.1216V10.9259C62.0245 10.56 61.7112 10.2986 61.398 10.2986Z" fill="var(--fill-0, #293189)"/>
<path id="Vector_7" d="M36.2891 21.6428V18.2971C36.2891 12.8602 39.2125 9.93262 45.2158 9.93262C51.3758 9.93262 54.0382 12.7034 54.0382 18.2971V21.6428C54.0382 27.0275 51.1148 30.0074 45.2158 30.0074C39.0037 30.0074 36.2891 27.2366 36.2891 21.6428ZM50.0186 18.2971C50.0186 15.0559 48.9223 13.6443 45.1637 13.6443C41.405 13.6443 40.2565 15.0559 40.2565 18.2971V21.6428C40.2565 24.8841 41.3528 26.2433 45.1637 26.2433C48.9223 26.2433 50.0186 24.8841 50.0186 21.6428V18.2971Z" fill="var(--fill-0, #293189)"/>
<path id="Vector_8" d="M103.424 3.03283C103.424 2.71917 103.162 2.45778 102.849 2.45778C102.849 2.45778 102.066 2.35322 101.44 2.56233C100.291 2.92828 99.4561 3.92156 99.4561 5.17623V12.4951C98.4119 10.8222 96.5326 9.9858 93.8181 9.9858C88.4412 9.9858 85.7266 12.8088 85.7266 18.4548V21.7483C85.7266 27.2898 88.65 30.0605 94.6012 30.0605C100.187 30.0605 103.476 27.3421 103.476 21.7483V17.2001V3.03283H103.424ZM94.5489 26.2965C90.6859 26.2965 89.694 24.9372 89.694 21.6961V18.3503C89.694 15.109 90.7903 13.6975 94.5489 13.6975C98.3076 13.6975 99.4561 15.0567 99.4561 18.298V19.3435V21.6438C99.5082 24.885 98.4119 26.2965 94.5489 26.2965Z" fill="var(--fill-0, #293189)"/>
<path id="Vector_9" d="M0.217575 15.2128C0.217575 18.2449 1.67927 19.4473 4.08061 20.4929L8.25687 22.3749C10.1362 23.2113 10.7626 23.6818 10.7626 24.7274C10.7626 26.0343 9.71856 26.4003 7.1606 26.4003C7.004 26.4003 6.01213 26.348 6.01213 26.348C3.14096 26.2434 0.739608 25.3024 0.739608 25.3024C0.687405 25.3024 0.426388 25.1978 0.217575 25.3547C-0.461066 26.0343 0.530795 29.2755 2.04468 29.6415C2.04468 29.6415 3.03655 29.7984 3.71519 29.9029C3.71519 29.9029 6.48196 30.112 6.79518 30.112C12.2765 30.112 14.6256 28.3868 14.6256 24.6751C14.6256 21.5906 13.0596 20.2838 10.5016 19.1859L6.01213 17.2516C4.70705 16.6766 4.18502 16.2061 4.18502 15.2651C4.18502 14.1149 5.02027 13.6967 7.57823 13.6967C9.19652 13.6967 10.606 13.9058 11.5978 14.1673C11.8589 14.2718 12.9551 14.69 13.3206 14.4809C13.9993 13.9058 13.164 10.8215 11.6501 10.4032C11.2846 10.2464 9.45754 9.93271 7.63043 9.93271C2.41011 9.93271 0.217575 11.6579 0.217575 15.2128Z" fill="var(--fill-0, #293189)"/>
<path id="Vector_10" d="M125.61 15.2127C125.61 18.2448 127.072 19.4472 129.473 20.4928L133.65 22.3748C135.529 23.2112 136.155 23.6817 136.155 24.7273C136.155 26.0342 135.112 26.4002 132.553 26.4002C132.397 26.4002 131.405 26.3479 131.405 26.3479C128.534 26.2433 126.132 25.3023 126.132 25.3023C126.08 25.3023 125.819 25.1977 125.61 25.3546C124.932 26.0342 125.923 29.2754 127.437 29.6414C127.437 29.6414 128.43 29.7983 129.108 29.9028C129.108 29.9028 131.875 30.0596 132.188 30.0596C137.669 30.0596 140.019 28.3867 140.019 24.6227C140.019 21.5383 138.453 20.2314 135.894 19.1335L131.405 17.1992C130.1 16.6242 129.577 16.1537 129.577 15.2127C129.577 14.0625 130.413 13.6443 132.971 13.6443C134.589 13.6443 135.999 13.8534 136.991 14.1148C137.252 14.2195 138.348 14.6377 138.713 14.4286C139.392 13.8534 138.557 10.7691 137.043 10.3508C136.678 10.2463 134.851 9.93262 133.024 9.93262C127.855 9.93262 125.61 11.6578 125.61 15.2127Z" fill="var(--fill-0, #293189)"/>
</g>
<defs>
<clipPath id="clip0_0_18">
<rect width="155" height="34" fill="white"/>
</clipPath>
</defs>
</svg>
