<svg width="192.36" height="33.6735" overflow="visible" style="display: block;" viewBox="0 0 192.36 33.6735" fill="none" xmlns="http://www.w3.org/2000/svg">
<g id="Group">
<path id="Vector" d="M124.174 7.54542C120.753 7.54542 117.892 8.69593 115.591 10.9984C113.31 13.3008 112.169 16.1714 112.169 19.616C112.169 23.0577 113.31 25.9185 115.591 28.1985C117.871 30.522 120.732 31.6837 124.174 31.6837C127.659 31.6837 130.488 30.4266 132.661 27.9081L130.531 25.8428C128.876 27.8435 126.755 28.8439 124.174 28.8439C121.615 28.8439 119.474 27.9824 117.753 26.2623C116.053 24.5632 115.203 22.3463 115.203 19.616C115.203 16.8814 116.053 14.666 117.753 12.9669C119.474 11.2467 121.615 10.3852 124.174 10.3852C126.864 10.3852 129.197 11.5147 131.177 13.7736L133.339 11.676C132.241 10.3642 130.897 9.34695 129.305 8.62718C127.712 7.906 126.002 7.54542 124.174 7.54542Z" fill="var(--fill-0, #5F6368)"/>
<path id="Vector_2" d="M138.717 8.0618H135.749V31.1674H138.717V8.0618Z" fill="var(--fill-0, #5F6368)"/>
<path id="Vector_3" d="M144.245 15.967C144.245 14.2679 144.74 12.8915 145.729 11.8378C146.718 10.7827 147.946 10.2565 149.409 10.2565C150.871 10.2565 152.098 10.7827 153.087 11.8378C154.076 12.8915 154.571 14.2679 154.571 15.967C154.571 17.645 154.076 19.0116 153.087 20.0653C152.075 21.1415 150.85 21.6788 149.409 21.6788C147.967 21.6788 146.739 21.1415 145.729 20.0653C144.74 19.0116 144.245 17.645 144.245 15.967ZM141.276 15.967C141.276 18.3971 142.04 20.4091 143.567 22.0015C145.116 23.594 147.063 24.3896 149.409 24.3896C151.754 24.3896 153.689 23.594 155.217 22.0015C156.767 20.4091 157.54 18.3971 157.54 15.967C157.54 13.5144 156.767 11.5024 155.217 9.9324C153.689 8.33993 151.754 7.54439 149.409 7.54439C147.063 7.54439 145.116 8.33993 143.567 9.9324C142.04 11.5249 141.276 13.5369 141.276 15.967Z" fill="var(--fill-0, #5F6368)"/>
<path id="Vector_4" d="M173.95 8.06174H171.11V10.2561H170.981C170.53 9.48164 169.835 8.83624 168.899 8.31991C167.963 7.80358 166.991 7.54542 165.979 7.54542C164.042 7.54542 162.553 8.09822 161.511 9.20664C160.467 10.3151 159.945 11.8907 159.945 13.935V23.8743H162.914V14.1286C162.978 11.547 164.279 10.2561 166.818 10.2561C168.001 10.2561 168.992 10.7346 169.786 11.6929C170.584 12.6498 170.981 13.7947 170.981 15.129V23.8743H173.95V8.06174Z" fill="var(--fill-0, #5F6368)"/>
<path id="Vector_5" d="M184.486 10.2565C185.949 10.2565 187.145 10.7827 188.068 11.8378C189.036 12.8915 189.52 14.2679 189.52 15.967C189.52 17.624 189.036 18.9906 188.068 20.0653C187.122 21.1415 185.927 21.6802 184.486 21.6802C183.066 21.6802 181.872 21.1415 180.904 20.0653C179.937 18.9906 179.452 17.624 179.452 15.967C179.452 14.2903 179.937 12.9223 180.904 11.8686C181.872 10.7939 183.066 10.2565 184.486 10.2565ZM184.002 7.54439C181.938 7.54439 180.162 8.36237 178.677 9.99694C177.214 11.654 176.484 13.6435 176.484 15.967C176.484 18.2918 177.214 20.2814 178.677 21.937C180.162 23.5716 181.938 24.3896 184.002 24.3896C185.164 24.3896 186.223 24.1426 187.181 23.6487C188.139 23.1521 188.876 22.4968 189.391 21.6802H189.52L189.391 23.8732V31.1663H192.36V8.06212H189.52V10.2565H189.391C188.876 9.43852 188.139 8.78189 187.181 8.28801C186.223 7.79273 185.164 7.54439 184.002 7.54439Z" fill="var(--fill-0, #5F6368)"/>
<path id="Vector_6" d="M13.2421 7.55107C6.04721 7.55107 6.37499e-06 13.4131 6.37499e-06 20.6122C6.37499e-06 27.8113 6.04721 33.6733 13.2421 33.6733C17.2226 33.6733 20.0554 32.1131 22.188 30.0744L19.6737 27.5573C18.1458 28.9899 16.0763 30.1053 13.2421 30.1053C7.99045 30.1053 3.88228 25.8694 3.88228 20.6122C3.88228 15.3549 7.99045 11.1191 13.2421 11.1191C16.6487 11.1191 18.592 12.4884 19.8323 13.7302C20.8509 14.7502 21.5188 16.2164 21.7741 18.2214H13.1495V21.7907H25.2453C25.373 21.1538 25.4347 20.3891 25.4347 19.5613C25.4347 16.8842 24.7037 13.5716 22.3466 11.2131C20.0554 8.82505 17.1272 7.55107 13.2421 7.55107Z" fill="var(--fill-0, #4285F4)"/>
<path id="Vector_7" d="M39.861 15.9626C39.861 18.989 37.668 21.0599 35.1229 21.0599C32.5791 21.0599 30.3847 18.989 30.3847 15.9626C30.3847 12.967 32.5791 10.8652 35.1229 10.8652C37.668 10.8652 39.861 12.967 39.861 15.9626ZM43.5496 15.9626C43.5496 11.1206 39.7656 7.55261 35.1229 7.55261C30.4801 7.55261 26.6961 11.1206 26.6961 15.9626C26.6961 20.8368 30.4801 24.3725 35.1229 24.3725C39.7656 24.3725 43.5496 20.8368 43.5496 15.9626Z" fill="var(--fill-0, #EA4335)"/>
<path id="Vector_8" d="M58.2033 15.9626C58.2033 18.989 56.0089 21.0599 53.4651 21.0599C50.9214 21.0599 48.727 18.989 48.727 15.9626C48.727 12.967 50.9214 10.8652 53.4651 10.8652C56.0089 10.8652 58.2033 12.967 58.2033 15.9626ZM61.8919 15.9626C61.8919 11.1206 58.1079 7.55261 53.4651 7.55261C48.8224 7.55261 45.0383 11.1206 45.0383 15.9626C45.0383 20.8368 48.8224 24.3725 53.4651 24.3725C58.1079 24.3725 61.8919 20.8368 61.8919 15.9626Z" fill="var(--fill-0, #FBBC04)"/>
<path id="Vector_9" d="M76.1891 15.929C76.1891 18.8922 74.215 21.0586 71.7007 21.0586C69.1528 21.0586 67.0201 18.8922 67.0201 15.929C67.0201 12.998 69.1528 10.8653 71.7007 10.8653C74.215 10.8653 76.1891 12.998 76.1891 15.929ZM79.4358 23.8619V8.76213C79.4358 2.54937 75.7752 0 71.4454 0C67.3709 0 64.9197 2.74158 63.9965 4.96965L67.2123 6.30957C67.7848 4.93878 69.185 3.31403 71.4454 3.31403C74.215 3.31403 75.9338 5.03419 75.9338 8.25141V9.46366H75.8075C74.9797 8.44363 73.3872 7.55128 71.3808 7.55128C67.1786 7.55128 63.3272 11.2147 63.3272 15.929C63.3272 20.6769 67.1786 24.3726 71.3808 24.3726C73.3872 24.3726 74.9797 23.4802 75.8075 22.4925H75.9338V23.8619H79.4358Z" fill="var(--fill-0, #4285F4)"/>
<path id="Vector_10" d="M85.786 8.06078H82.0932V32.7827H85.786V8.06078Z" fill="var(--fill-0, #34A853)"/>
<path id="Vector_11" d="M91.2804 16.2164L98.7938 19.3382C98.3813 20.3905 97.1396 21.1215 95.6748 21.1215C93.7961 21.1215 91.1864 19.4645 91.2804 16.2164ZM100.1 13.19L102.965 11.2776C102.042 9.90821 99.8125 7.55107 95.9611 7.55107C91.1864 7.55107 87.6199 11.2467 87.6199 15.961C87.6199 20.9629 91.2173 24.371 95.5471 24.371C99.9079 24.371 102.042 20.8998 102.742 19.0197L103.124 18.0628L91.8866 13.4131C92.7452 11.7238 94.0824 10.8651 95.9611 10.8651C97.8398 10.8651 99.1446 11.7883 100.1 13.19Z" fill="var(--fill-0, #EA4335)"/>
</g>
</svg>
