<svg preserveAspectRatio="xMidYMid meet" width="100%" height="100%" overflow="visible" style="display: block;" viewBox="0 0 171 32" fill="none" xmlns="http://www.w3.org/2000/svg">
<g id="Frame" clip-path="url(#clip0_0_4)">
<path id="Vector" d="M156.109 32C157.734 32 159.262 30.7947 162.317 24.3749C164.397 19.8133 165.957 15.773 167.582 11.6351C168.102 10.2987 168.363 10.0381 169.175 9.8103C169.76 9.64725 169.988 9.41944 169.988 9.06058C169.988 8.73449 169.792 8.44115 169.305 8.44115C168.59 8.44115 167.745 8.53944 166.77 8.53944C165.762 8.53944 165.015 8.44115 164.267 8.44115C163.812 8.44115 163.585 8.70249 163.585 9.02782C163.585 9.38592 163.812 9.61449 164.332 9.77754C165.762 10.1684 165.892 10.7878 165.34 12.4823C164.462 15.1543 163.487 17.728 161.992 21.1497C160.724 17.9886 159.652 15.1535 158.579 11.9612C158.189 10.7223 158.319 10.2012 159.847 9.77754C160.431 9.61449 160.627 9.41944 160.627 9.06134C160.627 8.70249 160.367 8.44115 159.912 8.44115C158.937 8.44115 157.929 8.53944 156.596 8.53944C155.166 8.53944 154.126 8.44115 153.119 8.44115C152.631 8.44115 152.404 8.73449 152.404 9.06058C152.404 9.45144 152.598 9.64725 153.183 9.8103C153.931 10.0053 154.158 10.2659 154.614 11.4392C156.401 15.904 157.994 19.8461 160.074 25.1901C158.677 27.7638 157.636 28.3505 156.239 28.6111C155.102 28.8069 154.354 29.5238 154.354 30.4358C154.354 31.1855 154.874 32 156.109 32ZM145.968 9.74477C148.048 9.74477 148.991 11.6343 148.991 12.384C148.991 12.6446 148.861 12.8412 148.569 12.9059C146.813 13.3615 144.7 13.7852 142.49 14.1768C142.88 11.2114 144.343 9.74477 145.968 9.74477ZM146.196 24.4076C149.023 24.4076 150.973 23.0065 152.144 21.6053C152.663 20.9867 152.339 20.432 151.818 20.432C151.688 20.432 151.558 20.4975 151.428 20.5631C150.064 21.4103 148.991 21.8659 147.528 21.8659C144.31 21.8659 142.393 19.0316 142.393 15.8057V15.7402C145.578 15.2846 148.699 14.6652 151.916 13.9154C152.339 13.8179 152.631 13.4918 152.534 13.0034C152.014 10.6568 149.868 8.08306 146.163 8.08306C142.457 8.08306 139.045 11.5368 139.045 16.5227C139.045 21.2145 142.068 24.4076 146.196 24.4076ZM131.017 24.1471C132.09 24.1471 133.227 24.0495 134.527 24.0495C135.827 24.0495 137.03 24.1471 138.103 24.1471C138.59 24.1471 138.818 23.8537 138.818 23.5276C138.818 23.1695 138.59 22.8434 138.037 22.7787C136.575 22.6156 136.315 22.4526 136.315 21.7684C136.25 18.608 136.25 15.6427 136.25 12.7101C136.25 10.0053 136.25 7.04077 136.347 0.458677C136.347 0.0350583 136.087 -0.0632274 135.73 0.0350583C134.202 0.418526 132.649 0.690728 131.082 0.849534C130.529 0.882296 130.302 1.14287 130.302 1.4682C130.302 1.8263 130.529 2.08763 131.147 2.18515C132.577 2.44573 132.739 2.60877 132.772 3.35849C132.837 6.64992 132.837 9.74477 132.837 12.7101C132.837 15.6427 132.837 18.6072 132.772 21.7692C132.739 22.4526 132.545 22.5829 131.082 22.7787C130.497 22.8434 130.302 23.1695 130.302 23.5284C130.302 23.8537 130.529 24.1471 131.017 24.1471ZM123.672 9.74477C125.752 9.74477 126.694 11.6343 126.694 12.384C126.694 12.6446 126.564 12.8412 126.272 12.9059C124.516 13.3615 122.404 13.7852 120.194 14.1768C120.584 11.2114 122.046 9.74477 123.672 9.74477ZM123.899 24.4076C126.727 24.4076 128.677 23.0065 129.847 21.6053C130.367 20.9867 130.042 20.432 129.522 20.432C129.392 20.432 129.262 20.4975 129.132 20.5631C127.767 21.4103 126.694 21.8659 125.231 21.8659C122.013 21.8659 120.096 19.0316 120.096 15.8057V15.7402C123.281 15.2846 126.402 14.6652 129.62 13.9154C130.042 13.8179 130.335 13.4918 130.237 13.0034C129.717 10.6568 127.572 8.08306 123.866 8.08306C120.161 8.08306 116.748 11.5368 116.748 16.5227C116.748 21.2145 119.771 24.4076 123.899 24.4076ZM100.432 24.1471C101.505 24.1471 102.577 24.0495 103.877 24.0495C105.177 24.0495 106.282 24.1471 107.355 24.1471C107.842 24.1471 108.07 23.8537 108.07 23.5276C108.07 23.1695 107.875 22.909 107.29 22.7787C105.828 22.5501 105.665 22.4526 105.665 21.7684C105.632 20.7261 105.632 19.6831 105.632 18.6728C106.349 18.214 107.054 17.7361 107.745 17.2396C109.11 19.2922 110.508 21.4103 111.873 23.3653C112.295 23.984 112.523 24.1143 113.206 24.1143C114.181 24.1143 115.383 24.0823 116.781 24.1143C117.268 24.1143 117.529 23.8217 117.529 23.4629C117.529 23.1368 117.398 22.8434 116.715 22.7787C115.806 22.6812 115.318 22.2248 114.538 21.2145C113.173 19.357 111.743 17.2389 110.411 15.1863C110.411 15.1543 110.442 15.1543 110.475 15.1215C112.978 12.9379 114.635 11.2762 115.871 9.64725C116.033 9.41868 116.131 9.22363 116.131 9.02782C116.131 8.63696 115.871 8.37639 115.351 8.40915C113.823 8.53868 112.425 8.53868 110.702 8.44115C110.02 8.40915 109.825 8.73449 109.825 9.06058C109.825 9.35392 110.053 9.68001 110.508 9.77754L111.158 9.94058C112.231 10.2012 112.231 11.0812 110.898 12.4823C109.467 14.0137 107.615 15.4796 105.6 16.7505V12.7101C105.6 10.0053 105.6 7.04077 105.697 0.458677C105.697 0.0350583 105.437 -0.0632274 105.08 0.0350583C103.552 0.418526 101.999 0.690728 100.432 0.849534C99.8792 0.882296 99.652 1.14287 99.652 1.4682C99.652 1.8263 99.8792 2.08763 100.497 2.18515C101.927 2.44573 102.089 2.60877 102.122 3.35849C102.187 6.64992 102.187 9.74477 102.187 12.7101C102.187 15.6427 102.187 18.6072 102.122 21.7692C102.089 22.4526 101.959 22.5509 100.497 22.7787C99.9119 22.909 99.7166 23.1695 99.7166 23.5284C99.7166 23.8537 99.9446 24.1471 100.432 24.1471ZM88.3736 24.1471C89.414 24.1471 90.519 24.0495 91.786 24.0495C93.0536 24.0495 94.5166 24.1471 95.5563 24.1471C96.0116 24.1471 96.2396 23.8537 96.2396 23.5276C96.2396 23.1695 96.0442 22.8762 95.3944 22.7787C93.7369 22.5829 93.5742 22.4206 93.5416 21.7356C93.4762 19.9436 93.4762 18.3474 93.4762 16.2621V13.5238C95.1664 11.2762 95.947 10.8191 96.7921 10.8191C97.7991 10.8191 98.6442 12.0899 99.0668 12.0899C99.2948 12.0899 99.4247 12.0252 99.5874 11.6991C99.9119 11.0476 100.237 10.3962 100.562 9.71201C100.757 9.28839 100.66 9.05982 100.27 8.79925C99.4893 8.27811 98.6769 7.91925 97.8644 7.91925C96.4341 7.91925 95.1338 9.12534 93.5089 11.7973C93.5089 10.7215 93.5416 9.54896 93.5742 8.24534C93.5742 7.82172 93.3143 7.7242 92.9564 7.82173C91.2661 8.27811 89.6739 8.53792 88.3082 8.63696C87.7557 8.70173 87.5611 8.92953 87.5611 9.28763C87.5611 9.64649 87.7557 9.90706 88.3736 10.0046C89.8039 10.2652 89.9665 10.4282 89.9984 11.1452C90.0638 12.7749 90.0638 14.5013 90.0638 16.2613C90.0638 18.3467 90.0638 19.9429 89.9984 21.7349C89.9665 22.4198 89.8685 22.5821 88.4382 22.7779C87.8537 22.9082 87.6584 23.1688 87.6584 23.5276C87.6584 23.853 87.8864 24.1463 88.3736 24.1463V24.1471ZM80.4756 9.74477C82.5558 9.74477 83.4982 11.6343 83.4982 12.384C83.4982 12.6446 83.3682 12.8412 83.0756 12.9059C81.3208 13.3615 79.208 13.7852 76.9979 14.1768C77.3878 11.2114 78.8508 9.74477 80.4756 9.74477ZM80.7029 24.4076C83.5308 24.4076 85.481 23.0065 86.6514 21.6053C87.1712 20.9867 86.846 20.432 86.3261 20.432C86.1962 20.432 86.0662 20.4975 85.9362 20.5631C84.5713 21.4103 83.4982 21.8659 82.0359 21.8659C78.8181 21.8659 76.9006 19.0316 76.9006 15.8057V15.7402C80.0858 15.2846 83.2063 14.6652 86.4234 13.9154C86.846 13.8179 87.1386 13.4918 87.0413 13.0034C86.5214 10.6568 84.376 8.08306 80.671 8.08306C76.9652 8.08306 73.5528 11.5368 73.5528 16.5227C73.5528 21.2145 76.5753 24.4076 80.7029 24.4076ZM60.8768 22.3551C59.9017 22.1265 59.5772 21.8012 59.5445 20.6278C59.4791 18.1516 59.4791 16.2293 59.4791 12.7101V12.6453C65.0043 12.5143 67.8976 13.7524 67.8976 17.7935C67.8976 20.1722 66.2074 22.5509 62.7942 22.5509C61.9172 22.5509 61.3647 22.4853 60.8768 22.3551ZM59.5445 4.20572C59.5445 3.55353 59.7064 3.29296 60.1943 3.09792C60.5842 2.96763 61.1694 2.90211 62.0791 2.90211C64.7771 2.90211 66.4346 4.36877 66.4346 7.23582C66.4346 8.83277 65.9148 10.1692 65.0697 11.1787C63.4121 10.8853 61.5266 10.7878 59.4791 10.8853C59.4791 8.31087 59.4791 6.45411 59.5445 4.20572ZM63.3141 24.3429C68.7101 24.3429 71.9279 21.1817 71.9279 17.5002C71.9279 14.6004 70.1723 12.7429 67.2798 11.7326C68.9046 10.7551 70.303 8.96306 70.303 6.8122C70.303 3.32573 67.4097 1.17487 62.339 1.17487C60.1616 1.17487 59.641 1.37068 57.5936 1.37068C55.4808 1.37068 54.1812 1.20763 53.336 1.20763C52.8162 1.20763 52.5563 1.50096 52.5563 1.92458C52.5563 2.28268 52.7508 2.57677 53.4333 2.70706C55.1889 2.96763 55.6115 3.32572 55.6115 4.20572C55.6442 6.97525 55.6761 9.06058 55.6761 12.7101C55.6761 16.3596 55.6761 18.5105 55.6115 21.28C55.5788 22.2248 55.2543 22.4853 53.4987 22.6484C52.8162 22.7459 52.6209 23.072 52.6209 23.4301C52.6209 23.8537 52.8808 24.1471 53.4014 24.1471C54.6691 24.1471 55.8714 24.0823 57.5936 24.0823C59.2192 24.0823 60.7134 24.3429 63.3141 24.3429ZM36.8904 24.5379C39.653 24.5379 42.221 23.7562 44.6584 22.1592C45.3408 21.7356 45.5362 21.28 45.5362 20.8236C45.5362 19.9436 45.6008 19.1292 45.5681 18.4122C45.5362 17.8583 45.2762 17.533 44.821 17.533C44.4638 17.533 44.2031 17.7608 44.0732 18.2492C43.228 21.0842 40.6927 22.6156 37.4756 22.6156C32.7294 22.6156 29.1544 18.6728 29.1544 12.7101C29.1544 6.68191 32.5348 2.73906 37.5402 2.73906C40.7907 2.73906 42.7409 3.94515 43.8132 6.48687C44.0412 7.00801 44.2358 7.26858 44.6584 7.26858C45.1136 7.26858 45.3082 6.94249 45.3408 6.42134C45.3735 5.67163 45.3735 4.49906 45.3735 3.78211C45.3735 3.29296 45.2109 2.90211 44.4957 2.51125C42.7736 1.56649 40.3682 0.882296 37.8001 0.882296C30.1948 0.882296 24.9941 6.12801 24.9941 13.069C24.9941 19.8133 29.8695 24.5379 36.8904 24.5379ZM12.1889 24.5379C17.8114 24.5379 21.5171 21.0514 21.5171 14.893V12.7101C21.5171 9.02782 21.5171 6.87773 21.549 3.91239C21.5817 3.2282 21.9062 2.93487 23.6945 2.77182C24.3124 2.6743 24.5077 2.3482 24.5077 1.99011C24.5077 1.56649 24.247 1.27315 23.7591 1.27315C22.7194 1.27315 21.7117 1.37068 20.4121 1.37068C19.079 1.37068 18.0386 1.27315 16.9662 1.27315C16.4791 1.27315 16.2192 1.56649 16.2192 1.98934C16.2192 2.31544 16.4137 2.64153 17.0643 2.73906C18.9491 2.93487 19.2744 3.2282 19.2744 3.91239C19.339 6.87773 19.339 9.02782 19.339 12.7101V14.6324C19.339 19.4552 16.9662 21.8987 13.0006 21.8987C8.93836 21.8987 6.82556 19.3577 6.82556 14.861V12.7101C6.82556 9.02782 6.82556 6.87773 6.89092 3.91239C6.89092 3.2282 7.21544 2.93487 9.00372 2.77182C9.65352 2.6743 9.84808 2.3482 9.84808 1.99011C9.84808 1.56649 9.58816 1.27315 9.06832 1.27315C7.83332 1.27315 6.59832 1.37068 4.90808 1.37068C3.21784 1.37068 2.014 1.27315 0.74784 1.27315C0.25992 1.27315 0 1.56649 0 1.98934C0 2.3482 0.19532 2.6743 0.84512 2.77182C2.63264 2.93487 2.95792 3.2282 2.95792 3.91239C3.02252 6.87773 3.02252 9.02782 3.02252 12.7101V15.2846C3.02252 21.3775 6.53448 24.5379 12.1889 24.5379Z" fill="var(--fill-0, #002676)"/>
</g>
<defs>
<clipPath id="clip0_0_4">
<rect width="171" height="32" fill="white"/>
</clipPath>
</defs>
</svg>
