<svg preserveAspectRatio="xMidYMid meet" width="100%" height="100%" overflow="visible" style="display: block;" viewBox="0 0 170 22" fill="none" xmlns="http://www.w3.org/2000/svg">
<g id="Frame" clip-path="url(#clip0_0_31)">
<path id="Vector" d="M73.2918 14.315H84.5074L78.5832 4.78166L67.6914 22.0003H62.7386L75.9853 1.34233C76.2741 0.930105 76.6578 0.592844 77.1043 0.358799C77.5508 0.124754 78.0471 0.000741371 78.5516 -0.00284942C79.0561 -0.00644021 79.5541 0.110495 80.0039 0.338161C80.4537 0.565826 80.8422 0.897591 81.1368 1.30566L94.4204 22.0003H89.4676L87.1347 18.1503H75.7866L73.3139 14.315M124.778 18.1503V0.205662H120.568V19.9177C120.567 20.1916 120.622 20.4628 120.73 20.7149C120.837 20.967 120.995 21.1948 121.194 21.3843C121.393 21.5875 121.631 21.7486 121.894 21.8582C122.157 21.9678 122.439 22.0236 122.724 22.0223H141.859L144.353 18.1723H124.755M55.1806 14.9457C57.1421 14.9457 59.0234 14.1692 60.4104 12.787C61.7974 11.4049 62.5767 9.53031 62.5767 7.57566C62.5767 5.62102 61.7974 3.74643 60.4104 2.36428C59.0234 0.982142 57.1421 0.205662 55.1806 0.205662H36.7823V22.0003H40.9845V4.063H54.923C55.8618 4.063 56.7622 4.43462 57.426 5.09613C58.0899 5.75763 58.4628 6.65482 58.4628 7.59033C58.4628 8.52584 58.0899 9.42303 57.426 10.0845C56.7622 10.746 55.8618 11.1177 54.923 11.1177H43.0671L55.6221 22.0003H61.723L53.2892 14.9457H55.1806ZM10.9364 22.0003H23.6459C26.4962 21.9266 29.205 20.7466 31.1948 18.7116C33.1846 16.6767 34.2982 13.9479 34.2982 11.1067C34.2982 8.26546 33.1846 5.5366 31.1948 3.50168C29.205 1.46675 26.4962 0.286694 23.6459 0.212995H10.9364C9.47689 0.175258 8.02457 0.42912 6.66509 0.959612C5.30561 1.4901 4.06649 2.28648 3.02081 3.30179C1.97513 4.31709 1.14405 5.53076 0.576599 6.87123C0.00914447 8.21169 -0.283203 9.65181 -0.283203 11.1067C-0.283203 12.5615 0.00914447 14.0016 0.576599 15.3421C1.14405 16.6826 1.97513 17.8962 3.02081 18.9115C4.06649 19.9268 5.30561 20.7232 6.66509 21.2537C8.02457 21.7842 9.47689 22.0381 10.9364 22.0003ZM23.3589 18.165H11.2161C9.37888 18.1059 7.63678 17.3372 6.35816 16.0213C5.07953 14.7055 4.36462 12.9456 4.36462 11.114C4.36462 9.28236 5.07953 7.52253 6.35816 6.20666C7.63678 4.89078 9.37888 4.12204 11.2161 4.063H23.3589C24.3073 4.03251 25.2522 4.19233 26.1375 4.53296C27.0227 4.87359 27.8301 5.38807 28.5119 6.04582C29.1936 6.70358 29.7356 7.49119 30.1058 8.36184C30.476 9.23249 30.6668 10.1684 30.6668 11.114C30.6668 12.0596 30.476 12.9955 30.1058 13.8661C29.7356 14.7368 29.1936 15.5244 28.5119 16.1822C27.8301 16.8399 27.0227 17.3544 26.1375 17.695C25.2522 18.0357 24.3073 18.1955 23.3589 18.165ZM103.2 22.0003H116.175L118.633 18.165H103.487C102.539 18.1955 101.594 18.0357 100.709 17.695C99.8233 17.3544 99.0158 16.8399 98.3341 16.1822C97.6524 15.5244 97.1103 14.7368 96.7401 13.8661C96.3699 12.9955 96.1792 12.0596 96.1792 11.114C96.1792 10.1684 96.3699 9.23249 96.7401 8.36184C97.1103 7.49119 97.6524 6.70358 98.3341 6.04582C99.0158 5.38807 99.8233 4.87359 100.709 4.53296C101.594 4.19233 102.539 4.03251 103.487 4.063H115.814L118.301 0.212995H103.2C101.741 0.175258 100.288 0.42912 98.9287 0.959612C97.5693 1.4901 96.3301 2.28648 95.2845 3.30179C94.2388 4.31709 93.4077 5.53076 92.8403 6.87123C92.2728 8.21169 91.9805 9.65181 91.9805 11.1067C91.9805 12.5615 92.2728 14.0016 92.8403 15.3421C93.4077 16.6826 94.2388 17.8962 95.2845 18.9115C96.3301 19.9268 97.5693 20.7232 98.9287 21.2537C100.288 21.7842 101.741 22.0381 103.2 22.0003ZM154.62 18.165C153.078 18.1656 151.578 17.6645 150.348 16.738C149.118 15.8114 148.225 14.5101 147.805 13.0317H165.776L168.249 9.18899H147.805C148.224 7.70997 149.116 6.40792 150.347 5.48119C151.577 4.55447 153.077 4.05387 154.62 4.05566H166.954L169.419 0.205662H154.333C151.482 0.27936 148.774 1.45942 146.784 3.49434C144.794 5.52927 143.68 8.25812 143.68 11.0993C143.68 13.9405 144.794 16.6694 146.784 18.7043C148.774 20.7392 151.482 21.9193 154.333 21.993H167.307L169.772 18.1577H154.612" fill="var(--fill-0, #C74634)"/>
</g>
<defs>
<clipPath id="clip0_0_31">
<rect width="170" height="22" fill="white"/>
</clipPath>
</defs>
</svg>
