<svg width="82" height="74" overflow="visible" style="display: block;" viewBox="0 0 82 74" fill="none" xmlns="http://www.w3.org/2000/svg">
<g id="Isolation_Mode" clip-path="url(#clip0_0_43)">
<path id="Vector" d="M82 0H0V74H82V0Z" fill="var(--fill-0, #051424)"/>
<g id="Group">
<path id="Vector_2" d="M32.7006 35.9024C32.6809 34.3354 31.5719 34.1287 30.9059 34.0346C30.5405 34.0209 28.3097 34.0297 26.9159 34.0287V34.5295H29.6388V48.9832H26.8952V49.4927H35.4147V48.9832H32.6819C32.6819 48.9832 32.7124 36.8755 32.6996 35.9024H32.7006Z" fill="var(--fill-0, white)"/>
<path id="Vector_3" d="M6.73363 48.9841H10.6815L10.7159 24.5327L6.76801 24.5269V24.0261L13.4555 24.0349C13.7865 24.0349 14.1195 24.03 14.4515 24.0182C14.7826 24.0075 15.1146 23.9888 15.4466 23.9663C15.7786 23.9663 16.1047 23.9614 16.4259 23.9497C16.7462 23.9389 17.0713 23.933 17.4043 23.934C18.7559 23.9359 20.0064 24.0976 21.1557 24.421C22.305 24.7454 23.301 25.206 24.1419 25.8038C24.9827 26.4016 25.6399 27.1189 26.1133 27.9538C26.5858 28.7898 26.8216 29.7207 26.8206 30.7458C26.8186 31.8198 26.5445 32.7734 25.9994 33.6073C25.4513 34.4413 24.7283 35.1439 23.8265 35.7153C22.9238 36.2876 21.8737 36.7276 20.6763 37.0353C19.4779 37.345 18.2275 37.4978 16.924 37.4959C16.5919 37.4959 16.1646 37.4645 15.644 37.4037C15.1214 37.344 14.6598 37.2773 14.257 37.2058L14.2403 48.9832H18.1882V49.4927H6.73363V48.9832V48.9841ZM14.256 36.705C14.7295 36.8011 15.2266 36.8736 15.7491 36.9216C16.2697 36.9706 16.7324 36.9941 17.1361 36.9951C18.8905 36.9971 20.2608 36.4816 21.2461 35.4448C22.2313 34.408 22.7264 32.84 22.7293 30.7409C22.7313 29.5238 22.6134 28.5095 22.3777 27.6981C22.1419 26.8866 21.7686 26.2369 21.2598 25.7459C20.75 25.2569 20.0879 24.9159 19.2697 24.7238C18.4514 24.5327 17.474 24.4357 16.3356 24.4338C15.8847 24.4338 15.4761 24.4455 15.1087 24.4681C14.7403 24.4916 14.4623 24.5151 14.2727 24.5386L14.256 36.707V36.705Z" fill="var(--fill-0, white)"/>
<path id="Vector_4" d="M28.6417 27.3933H32.9295V31.6709C30.5631 31.6709 28.6417 29.7541 28.6417 27.3933Z" fill="var(--fill-0, #587389)"/>
<path id="Vector_5" d="M55.0517 37.9231C55.0517 35.5604 56.9711 33.6455 59.3394 33.6455V37.9231H55.0517Z" fill="var(--fill-0, white)"/>
<path id="Vector_6" d="M54.593 34.0268H48.769V34.5207H51.5361L51.5165 48.9841H48.7778L48.7768 49.4937H57.6696V48.9841H54.593V34.0268Z" fill="var(--fill-0, white)"/>
<path id="Vector_7" d="M47.9566 45.7679C47.8672 46.0119 47.7533 46.3019 47.6118 46.6381C47.4222 47.0908 47.1315 47.5377 46.7386 47.9787C46.3466 48.4197 45.8132 48.795 45.1364 49.1047C44.4606 49.4143 43.6001 49.4957 42.5579 49.4937C41.5137 49.4927 40.6788 49.3369 40.0511 48.8822C39.4234 48.4285 38.9499 47.8552 38.6307 47.1624C38.3115 46.4705 38.1042 45.6944 38.0119 44.8349C37.9176 43.9765 37.8724 43.1533 37.8734 42.3664C37.8734 41.9842 37.8842 40.6984 37.8842 40.6984H48.8662C48.8682 39.3872 48.6511 38.2887 48.213 37.4057C47.7749 36.5228 47.2317 35.8113 46.5804 35.2743C45.9292 34.7363 45.2239 34.3472 44.4655 34.1071C43.7072 33.868 42.995 33.7475 42.332 33.7465C41.2181 33.7445 40.1739 33.9768 39.2014 34.4403C38.228 34.9038 37.3793 35.5173 36.6563 36.2797C35.9304 37.0421 35.3606 37.9182 34.9441 38.907C34.5277 39.8968 34.3184 40.917 34.3174 41.9665C34.3155 43.1837 34.5159 44.2871 34.9176 45.2779C35.3184 46.2696 35.8872 47.1222 36.6209 47.8395C37.3547 48.5559 38.225 49.1106 39.2338 49.4937C40.2397 49.8769 41.3369 50.0651 42.5235 50.066C43.7092 50.068 44.6757 49.8632 45.4223 49.4937C46.1698 49.1253 46.7631 48.7186 47.2032 48.2296C47.6423 47.7425 47.9625 47.2535 48.1649 46.7635C48.3368 46.349 48.4586 46.0207 48.5362 45.7679H47.9586H47.9566ZM37.8979 38.0172C37.9009 35.8867 39.7731 34.163 41.9076 34.1659C44.0431 34.1688 45.771 35.8975 45.7681 38.028L45.7651 40.1928H37.8812L37.8969 38.0172H37.8979Z" fill="var(--fill-0, white)"/>
<path id="Vector_8" d="M74.5915 49.0616C74.3067 49.1566 74.0346 49.2037 73.7743 49.2037C73.3705 49.2037 73.0631 49.0841 72.8499 48.845C72.6368 48.6059 72.5307 48.1404 72.5317 47.4485L72.5444 38.5366C72.5444 37.8918 72.4511 37.2783 72.2615 36.6933C72.0729 36.1082 71.7527 35.583 71.3038 35.1175C70.8529 34.651 70.2606 34.2806 69.5258 34.0052C68.7911 33.7298 67.9581 33.6475 66.8678 33.6455C66.357 33.6455 65.357 33.6455 65.357 33.6455C62.9887 33.6455 61.0693 35.5604 61.0693 37.9231H65.3521V34.651C65.3521 34.3335 65.6104 34.0748 65.9287 34.0748H67.3982C68.5887 34.0748 69.5514 35.0391 69.5504 36.2268C69.5504 36.2268 69.6535 39.0629 69.5455 39.4803C69.4384 39.8978 69.1261 40.2437 68.8412 40.5171C68.5563 40.7915 68.1585 41.0228 67.6477 41.2129C67.1369 41.404 66.4915 41.6284 65.7087 41.8901C65.0446 42.1037 64.3865 42.3056 63.7342 42.4967C63.082 42.6868 62.4887 42.9298 61.9553 43.2278C61.4219 43.5257 60.9877 43.9245 60.6547 44.4243C60.3227 44.9251 60.1557 45.5934 60.1548 46.4284C60.1548 46.7861 60.2078 47.1751 60.3139 47.5916C60.42 48.0091 60.638 48.3854 60.9701 48.7195C61.3011 49.0547 61.7628 49.335 62.3561 49.5633C62.9484 49.7907 63.7431 49.9043 64.7391 49.9063C65.6163 49.9073 66.3393 49.8073 66.909 49.6054C67.4787 49.4036 67.9355 49.1537 68.2803 48.8558C68.6241 48.5588 68.8795 48.2492 69.0465 47.9258C69.2125 47.6043 69.3431 47.3358 69.4384 47.1212H69.5092C69.6978 48.0051 70.0455 48.6921 70.5563 49.1801C71.0651 49.6701 71.8883 49.9151 73.0267 49.9171C73.6436 49.9171 74.1652 49.8299 74.5915 49.6515C74.8381 49.5486 75.0621 49.4349 75.2683 49.3124V48.7284C75.0503 48.8705 74.8253 48.9822 74.5925 49.0606L74.5915 49.0616ZM69.4767 44.2224C69.4767 44.6997 69.4345 45.2308 69.351 45.8149C69.2665 46.3999 69.0995 46.9419 68.85 47.4426C68.6005 47.9434 68.2322 48.3599 67.7459 48.6931C67.2597 49.0273 66.6251 49.1929 65.8422 49.1919C65.2971 49.1919 64.8531 49.0949 64.5093 48.9038C64.1655 48.7117 63.8993 48.4677 63.7097 48.1688C63.5201 47.8699 63.3904 47.5299 63.3197 47.1477C63.248 46.7665 63.2136 46.396 63.2136 46.0383C63.2146 45.2044 63.417 44.5066 63.8217 43.9451C64.2244 43.3865 64.8069 42.9514 65.5662 42.6417L68.2351 41.5716C68.9709 41.2629 69.3618 40.9523 69.4099 40.6426H69.4807L69.4758 44.2215L69.4767 44.2224Z" fill="var(--fill-0, white)"/>
</g>
</g>
<defs>
<clipPath id="clip0_0_43">
<rect width="82" height="74" fill="white"/>
</clipPath>
</defs>
</svg>
