<svg preserveAspectRatio="xMidYMid meet" width="100%" height="100%" overflow="visible" style="display: block;" viewBox="0 0 129.991 26.0013" fill="none" xmlns="http://www.w3.org/2000/svg">
<g id="Grupo 5649">
<path id="Caminho 4193" d="M105.652 21.6987C105.323 21.7171 104.994 21.6624 104.689 21.5385C104.384 21.4146 104.11 21.2246 103.888 20.9824C103.665 20.7401 103.5 20.4516 103.404 20.1378C103.307 19.8239 103.282 19.4926 103.33 19.1679V11.4687H108.301V7.67244H103.366V3.08203H98.9396V7.67244H95.6016V11.4677H98.9396V19.1679C98.9396 23.6138 101.479 25.8188 105.361 25.6744C106.619 25.656 107.863 25.3983 109.025 24.9151L107.791 21.1557C107.126 21.4913 106.395 21.6764 105.65 21.6977" fill="var(--fill-0, #1F35B5)"/>
<path id="Caminho 4194" d="M26.7511 7.09766C20.9511 7.09766 17.2461 11.0015 17.2461 16.4239C17.2461 22.1353 20.9101 25.9316 27.0781 25.9316C29.9204 25.9963 32.6772 24.9605 34.7691 23.042L31.9361 20.2501C30.587 21.3506 28.8904 21.9397 27.1471 21.9131C24.0271 21.9131 22.1041 20.3189 21.8141 18.1178H35.7821C36.4741 10.7843 32.7361 7.09766 26.7511 7.09766ZM21.8901 14.471C22.1948 13.4058 22.8597 12.4783 23.7723 11.8458C24.6848 11.2133 25.7888 10.9147 26.8971 11.0005C29.4371 11.0005 31.2511 12.1574 31.5411 14.471H21.8901Z" fill="var(--fill-0, #1F35B5)"/>
<path id="Ret&#195;&#162;ngulo 1435" d="M42.5462 0H38.1562V25.457H42.5462V0Z" fill="var(--fill-0, #1F35B5)"/>
<path id="Caminho 4195" d="M59.8541 10.0935C59.23 9.16765 58.3787 8.41615 57.3811 7.91041C56.3834 7.40467 55.2726 7.16149 54.1541 7.20397C48.9301 7.1681 44.8301 10.3855 44.8301 16.5302C44.8301 22.7836 48.7481 26.0379 54.0451 26.001C56.0451 25.9651 58.8341 24.9528 59.8451 22.8564L60.0631 25.459H64.2411V7.63541H59.9961L59.8541 10.0935ZM54.5541 21.9507C53.1336 21.9235 51.7805 21.3421 50.7855 20.3316C49.7906 19.321 49.2332 17.9618 49.2332 16.5462C49.2332 15.1305 49.7906 13.7714 50.7855 12.7608C51.7805 11.7503 53.1336 11.1689 54.5541 11.1417C61.5201 11.1417 61.5201 21.9507 54.5541 21.9507Z" fill="var(--fill-0, #1F35B5)"/>
<path id="Caminho 4196" d="M125.755 7.63538L125.61 10.0935C124.986 9.1677 124.135 8.41625 123.137 7.91052C122.139 7.40478 121.028 7.16156 119.91 7.20395C114.686 7.16808 110.586 10.3854 110.586 16.5302C110.586 22.7836 114.504 26.0379 119.801 26.001C121.801 25.9651 124.59 24.9528 125.601 22.8564L125.819 25.4589H129.991V7.63538H125.755ZM120.313 21.9506C118.892 21.9235 117.539 21.3421 116.544 20.3315C115.549 19.321 114.992 17.9618 114.992 16.5462C114.992 15.1305 115.549 13.7714 116.544 12.7608C117.539 11.7502 118.892 11.1689 120.313 11.1417C127.279 11.1417 127.279 21.9506 120.313 21.9506Z" fill="var(--fill-0, #1F35B5)"/>
<path id="Caminho 4197" d="M76.5841 19.9918L71.3601 7.60059H66.5352L74.1902 25.5308H78.9792L86.5982 7.60059H81.7711L76.5841 19.9918Z" fill="var(--fill-0, #1F35B5)"/>
<path id="Ret&#195;&#162;ngulo 1436" d="M93.3127 7.56348H88.8867V25.4578H93.3127V7.56348Z" fill="var(--fill-0, #1F35B5)"/>
<path id="Caminho 4198" d="M6.389 0H0V6.36399H6.387V25.457H12.774V6.36399C12.774 4.6765 12.1014 3.0581 10.904 1.86467C9.70664 0.671252 8.08259 0.000528414 6.389 0Z" fill="var(--fill-0, #1F35B5)"/>
<path id="Caminho 4199" d="M19.1624 6.36388V0.000881618H12.7754C12.7754 1.68854 13.4482 3.3071 14.6458 4.50055C15.8433 5.694 17.4676 6.36461 19.1614 6.36487L19.1624 6.36388Z" fill="var(--fill-0, #1F35B5)"/>
</g>
</svg>
