<svg width="2011" height="1437" viewBox="0 0 2011 1437" fill="none" xmlns="http://www.w3.org/2000/svg">
<path d="M1065.17 31.1023C887.312 3.60008 798.383 -10.151 712.564 8.6985C626.745 27.548 551.764 77.3008 401.802 176.806L214.595 301.026C91.8198 382.492 30.4324 423.225 8.38103 487.342C-13.6703 551.459 9.67617 621.334 56.3691 761.085L202.218 1197.61C215.904 1238.57 222.747 1259.05 233.577 1276.66C247.097 1298.66 265.19 1317.48 286.627 1331.87C303.799 1343.39 323.992 1351.04 364.378 1366.34C478.533 1409.6 535.611 1431.22 595.626 1435.88C655.642 1440.54 715.374 1427.99 834.838 1402.87L1635.9 1234.46C1831.65 1193.3 1929.52 1172.73 1979.39 1099.52C2029.27 1026.3 2012.58 927.691 1979.21 730.469L1949.65 555.725C1917.13 363.513 1900.87 267.408 1836.46 203.908C1772.05 140.407 1675.72 125.512 1483.07 95.7224L1065.17 31.1023Z" fill="#155CF4"/>
</svg>
