<svg preserveAspectRatio="none" width="100%" height="100%" overflow="visible" style="display: block;" viewBox="0 0 1144.88 527.127" fill="none" xmlns="http://www.w3.org/2000/svg">
<path id="Vector 2" d="M143.281 98.1902C164.544 78.284 191.876 66.0949 220.893 63.5777L948.191 0.486458C972.787 -1.6472 997.482 3.26714 1019.39 14.6546L1091 51.8813C1129.73 72.0159 1150.93 114.947 1143.36 157.94L1111.03 341.648C1101.73 394.538 1060.85 436.262 1008.17 446.658L630.891 521.102C623 522.659 614.98 523.481 606.937 523.556L224.419 527.121C181.921 527.517 141.914 507.116 117.278 472.486L18.5178 333.662C-10.5013 292.87 -4.88629 236.906 31.6583 202.692L143.281 98.1902Z" fill="var(--fill-0, #181057)"/>
</svg>
