<svg width="1363" height="1345" viewBox="0 0 1363 1345" fill="none" xmlns="http://www.w3.org/2000/svg">
<path opacity="0.3" d="M4.45535 55.8646C-0.0366086 50.6901 0.67154 43.0728 6.04037 38.815L49.5819 4.28418C54.9916 -0.00590562 63.0728 0.745373 67.599 5.95914L104.003 47.8948C108.495 53.0691 107.787 60.6866 102.418 64.9443L58.8758 99.4751C53.4662 103.765 45.3858 103.014 40.8597 97.8002L4.45535 55.8646Z" stroke="#FFBB00" stroke-width="3"/>
<path opacity="0.3" d="M1233.54 1225.95C1250.42 1219.75 1272.4 1229.49 1279.99 1246.55L1297.61 1286.18C1303.72 1299.9 1298.29 1313.79 1284.8 1318.94L1227.83 1340.69C1210.8 1347.19 1188.39 1337.25 1180.9 1319.87L1163.46 1279.37C1157.54 1265.62 1163.17 1251.83 1176.75 1246.83L1233.54 1225.95Z" stroke="#FFBB00" stroke-width="3"/>
<path opacity="0.2" d="M1156.76 922.197C1137.72 901.649 1138.94 869.552 1159.48 850.506L1220.91 793.551C1241.45 774.505 1273.54 775.723 1292.58 796.271L1348.72 856.857C1367.76 877.405 1366.54 909.502 1346 928.548L1284.57 985.503C1264.03 1004.55 1231.94 1003.33 1212.9 982.782L1156.76 922.197Z" fill="#FFBB00"/>
</svg>
