<svg preserveAspectRatio="none" width="100%" height="100%" overflow="visible" style="display: block;" viewBox="0 0 1154.49 510.499" fill="none" xmlns="http://www.w3.org/2000/svg">
<path id="Vector 2" d="M986.929 23.6607C963.104 6.90636 934.342 -1.3615 905.257 0.182979L176.255 38.8938C151.601 40.203 127.83 48.5054 107.722 62.8298L41.9867 109.658C6.43275 134.985 -8.58385 180.448 4.8896 221.97L62.4623 399.393C79.0378 450.474 125.317 486.106 178.938 489.071L562.901 510.301C570.933 510.745 578.989 510.442 586.964 509.397L966.258 459.709C1008.4 454.188 1045.18 428.419 1064.76 390.698L1143.24 239.484C1166.3 195.051 1152.96 140.413 1112.01 111.617L986.929 23.6607Z" fill="var(--fill-0, #181057)"/>
</svg>
