<svg preserveAspectRatio="xMidYMid meet" width="100%" height="100%" overflow="visible" style="display: block;" viewBox="0 0 1517 1201" fill="none" xmlns="http://www.w3.org/2000/svg">
<path id="Vector" d="M948.152 113.925C822.184 46.0907 738.635 10.3097 670.144 1.99925C601.653 -6.31123 533.822 11.7333 398.16 47.8222L228.803 92.8745C117.735 122.421 62.2014 137.194 30.3741 180.124C-1.45315 223.053 -0.82479 282.339 0.431941 400.909L4.32504 768.215C4.64951 798.828 4.81175 814.135 7.47401 828.503C12.5646 855.976 24.3742 881.554 41.7231 902.683C50.7963 913.732 62.1046 923.269 84.7211 942.344C159.425 1005.35 196.777 1036.85 240.392 1056.23C284.007 1075.6 331.544 1081.82 426.617 1094.24L1099.47 1183.41C1255.25 1203.76 1333.14 1213.94 1387.89 1171.44C1442.64 1128.93 1453.87 1049.56 1476.34 890.805L1496.25 750.148C1518.15 595.431 1529.1 518.073 1496.34 452.801C1463.57 387.53 1395.35 350.791 1258.91 277.314L948.152 113.925Z" fill="var(--fill-0, #155CF4)"/>
</svg>
