<svg preserveAspectRatio="xMidYMid meet" width="100%" height="100%" overflow="visible" style="display: block;" viewBox="0 0 2059 1605" fill="none" xmlns="http://www.w3.org/2000/svg">
<path id="Rectangle 14" d="M238.06 223.138C309.721 168.266 345.551 140.83 386.726 123.585C388.783 122.724 390.848 121.882 392.922 121.06C434.427 104.613 479.343 99.1455 569.174 88.2102L1088.48 24.9954C1301.8 -0.971831 1408.46 -13.9555 1500.73 22.5708C1527.2 33.0494 1552.43 46.3923 1575.96 62.3578C1647.79 111.099 1816.97 310.586 1938.22 459.056C2004.41 540.1 2037.51 580.621 2051.66 632.145C2065.81 683.669 2057.83 736.953 2041.87 843.521L2026.64 945.251C2012.54 1039.35 2005.5 1086.41 1987.6 1129.98C1969.69 1173.55 1941.63 1211.96 1885.5 1288.78L1862.74 1319.93C1807.92 1394.95 1780.52 1432.46 1742.61 1457.51C1704.69 1482.55 1659.45 1493.03 1568.96 1514L1278.18 1581.37C1218.61 1595.17 1188.82 1602.07 1158.45 1604.24C1128.07 1606.4 1097.61 1603.79 1036.68 1598.58L570.966 1558.74C418.432 1545.7 342.165 1539.17 284.327 1495.85C226.489 1452.54 198.751 1381.16 143.275 1238.42L40.5903 974.205C15.8523 910.552 3.48335 878.726 0.652658 841.246C-2.17803 803.767 4.3448 774.583 17.3905 716.217C52.2838 560.103 123.777 310.647 238.06 223.138Z" fill="var(--fill-0, #F5F5F5)"/>
</svg>
