<svg preserveAspectRatio="xMidYMid meet" width="100%" overflow="visible" style="display: block;" viewBox="0 0 1649.2 939.445" fill="none" xmlns="http://www.w3.org/2000/svg">
<path id="Rectangle 14" d="M0 629.444L6.23293 500.63C10.4646 413.176 12.5804 369.449 31.5668 331.635C32.5068 329.763 33.4761 327.906 34.4744 326.064C54.6394 288.866 89.3024 262.126 158.628 208.647C225.141 157.338 258.397 131.684 296.613 115.559C298.523 114.754 300.44 113.967 302.364 113.198C340.887 97.8192 382.576 92.7067 465.954 82.4816L947.949 23.3722C1145.94 -0.908717 1244.94 -13.0492 1330.59 21.105C1355.16 30.9031 1378.57 43.3795 1400.41 58.3081C1476.53 110.346 1521.67 199.285 1611.95 377.163C1631.82 416.319 1641.76 435.897 1646.08 456.972C1647.34 463.107 1648.24 469.31 1648.77 475.55C1650.59 496.986 1646.61 518.577 1638.65 561.76L1569 939.444L62.9996 939.445L0 629.444Z" fill="var(--fill-0, #F5F5F5)"/>
</svg>
