<svg preserveAspectRatio="xMidYMid meet" width="100%" overflow="visible" style="display: block;" viewBox="0 0 308 327" fill="none" xmlns="http://www.w3.org/2000/svg">
<g id="Winner">
<path id="Vector" d="M201.188 10.125H189.266V6.75C189.266 3.01894 186.219 0 182.453 0H124.547C120.781 0 117.734 3.01894 117.734 6.75V10.125H105.812C102.047 10.125 99 13.1439 99 16.875V30.375C99 40.6266 107.388 48.9375 117.734 48.9375H117.898C119.455 65.2388 132.172 78.2932 148.391 80.5984V94.5H136.469C132.703 94.5 129.656 97.5189 129.656 101.25V106.312C129.656 107.246 130.418 108 131.359 108H175.641C176.582 108 177.344 107.246 177.344 106.312V101.25C177.344 97.5189 174.297 94.5 170.531 94.5H158.609V80.5984C174.828 78.2932 187.545 65.2388 189.102 48.9375H189.266C199.612 48.9375 208 40.6266 208 30.375V16.875C208 13.1439 204.953 10.125 201.188 10.125ZM109.219 30.375V20.25H117.734V38.8125C113.03 38.8125 109.219 35.0359 109.219 30.375ZM166.635 35.5185L161.276 40.9641L162.545 48.6658C162.651 49.3037 162.377 49.9449 161.845 50.3179C161.552 50.5204 161.207 50.625 160.863 50.625C160.58 50.625 160.295 50.5558 160.038 50.4141L153.497 46.8315L146.955 50.4141C146.383 50.7279 145.681 50.6891 145.148 50.3162C144.615 49.9432 144.342 49.302 144.448 48.6641L145.717 40.9624L140.359 35.5168C139.912 35.0629 139.759 34.4031 139.964 33.8023C140.168 33.2016 140.691 32.7662 141.321 32.67L148.66 31.5596L151.957 24.6021C152.238 24.0081 152.839 23.6318 153.498 23.6318C154.157 23.6318 154.759 24.0098 155.04 24.6021L158.337 31.5596L165.676 32.67C166.306 32.7662 166.83 33.2016 167.033 33.8023C167.236 34.4031 167.081 35.0646 166.635 35.5185ZM197.781 30.375C197.781 35.0359 193.97 38.8125 189.266 38.8125V20.25H197.781V30.375Z" fill="var(--fill-0, #FFBB00)"/>
<g id="Group">
<path id="Rectangle 33" d="M0 219.455C0 208.795 0 203.465 2.06684 199.393C3.88488 195.811 6.78585 192.9 10.354 191.075C14.4104 189 19.7205 189 30.3407 189H65.6593C76.2795 189 81.5896 189 85.646 191.075C89.2142 192.9 92.1151 195.811 93.9332 199.393C96 203.465 96 208.795 96 219.455V296.545C96 307.205 96 312.535 93.9332 316.607C92.1151 320.189 89.2142 323.1 85.646 324.925C81.5896 327 76.2795 327 65.6593 327H30.3407C19.7205 327 14.4104 327 10.354 324.925C6.78585 323.1 3.88488 320.189 2.06684 316.607C0 312.535 0 307.205 0 296.545V219.455Z" fill="var(--fill-0, #155CF4)"/>
<path id="Rectangle 34" d="M106 148.574C106 137.872 106 132.521 108.067 128.433C109.885 124.838 112.786 121.915 116.354 120.083C120.41 118 125.72 118 136.341 118H171.659C182.28 118 187.59 118 191.646 120.083C195.214 121.915 198.115 124.838 199.933 128.433C202 132.521 202 137.872 202 148.574V296.426C202 307.128 202 312.479 199.933 316.567C198.115 320.162 195.214 323.085 191.646 324.917C187.59 327 182.28 327 171.659 327H136.341C125.72 327 120.41 327 116.354 324.917C112.786 323.085 109.885 320.162 108.067 316.567C106 312.479 106 307.128 106 296.426V148.574Z" fill="var(--fill-0, #155CF4)"/>
<path id="Rectangle 35" d="M212 279.255C212 268.664 212 263.369 214.067 259.325C215.885 255.767 218.786 252.874 222.354 251.061C226.41 249 231.72 249 242.341 249H277.659C288.28 249 293.59 249 297.646 251.061C301.214 252.874 304.115 255.767 305.933 259.325C308 263.369 308 268.664 308 279.255V296.745C308 307.336 308 312.631 305.933 316.675C304.115 320.233 301.214 323.126 297.646 324.939C293.59 327 288.28 327 277.659 327H242.341C231.72 327 226.41 327 222.354 324.939C218.786 323.126 215.885 320.233 214.067 316.675C212 312.631 212 307.336 212 296.745V279.255Z" fill="var(--fill-0, #155CF4)"/>
</g>
</g>
</svg>
