<svg preserveAspectRatio="xMidYMid meet" width="100%" overflow="visible" style="display: block;" viewBox="0 0 461.591 426.455" fill="none" xmlns="http://www.w3.org/2000/svg">
<path id="Rectangle 36" d="M87.4771 47.6228C98.4403 29.3718 103.922 20.2462 111.531 13.8246C118.26 8.14533 126.157 4.01678 134.661 1.73201C144.276 -0.851382 154.898 -0.144946 176.142 1.26793L311.516 10.2713C327.981 11.3663 336.213 11.9139 343.486 14.7342C349.922 17.2304 355.785 21.0074 360.719 25.8365C366.294 31.2926 370.195 38.5624 377.999 53.1021L440.872 170.246C452.866 192.591 458.862 203.764 460.721 215.445C462.365 225.773 461.673 236.339 458.697 246.366C455.331 257.704 447.929 268 433.125 288.591L352.058 401.348C344.885 411.325 341.299 416.314 336.631 419.713C332.502 422.72 327.781 424.813 322.78 425.855C317.128 427.032 311.023 426.341 298.813 424.959L145.802 407.641C117.81 404.473 103.814 402.888 91.8804 397.279C81.3254 392.317 71.983 385.107 64.5076 376.155C56.0557 366.033 50.9752 352.896 40.8143 326.622L10.3911 247.953C4.17473 231.878 1.06655 223.841 0.276432 215.638C-0.423464 208.372 0.208412 201.039 2.14101 194C4.32275 186.054 8.76005 178.667 17.6347 163.893L87.4771 47.6228Z" fill="var(--fill-0, #155CF4)" fill-opacity="0.3"/>
</svg>
